<svg width="1045" height="335" viewBox="0 0 1045 335" fill="none" xmlns="http://www.w3.org/2000/svg">
<path d="M1005.43 290.837C1005.81 290.113 1006.66 289.768 1007.46 289.957C1010.99 290.815 1013.9 293.244 1016.26 294.158C1018.84 295.161 1020.96 294.693 1023.19 295.517C1025.42 296.342 1025.92 298.548 1028.66 298.269C1031.42 297.991 1038.08 294.804 1038.08 294.804C1038.08 294.804 1041.09 299.45 1040.2 303.74C1040.01 304.631 1040.4 305.545 1041.2 305.968C1042.37 306.581 1043.84 307.517 1044.07 308.442C1044.46 310.024 1039.82 311.172 1039.82 311.172C1039.82 311.172 1042.27 313.913 1036.17 314.369C1037.99 315.985 1037.7 319.662 1034.61 320.041C1031.52 320.42 1032.54 331.729 1034.1 333.422C1029.78 334.091 1025.86 329.634 1025.86 329.634C1023.49 331.272 1016.63 329.222 1013.62 327.818L1005.57 331.116L1006.72 323.829L1002.06 323.183L1005.04 320.186C1005.04 320.186 997.699 318.414 995.527 316.876C995.382 314.971 997.833 310.882 999.07 310.18C1000.31 309.489 1003.58 309.3 1004.44 308.408C1005.3 307.517 999.181 303.161 999.994 301.712C1000.81 300.264 1002.76 300.865 1003.69 299.629C1004.46 298.615 1004.18 293.2 1005.43 290.804V290.837Z" fill="#EFE6D3"/>
<path opacity="0.3" d="M1033.2 334.403C1029.77 334.403 1026.8 331.862 1025.67 330.748C1022.61 331.952 1016.5 330.08 1013.6 328.81L1004.43 332.564L1005.7 324.609L1000.15 323.84L1003.29 320.687C1000.97 320.063 996.674 318.815 995.003 317.634L994.657 317.389L994.624 316.966C994.446 314.626 997.142 310.258 998.624 309.422C999.281 309.055 1000.25 308.843 1001.28 308.609C1001.97 308.453 1002.94 308.241 1003.47 308.007C1003.14 307.528 1002.37 306.737 1001.83 306.169C1000.02 304.275 998.457 302.648 999.215 301.3C999.827 300.208 1000.86 299.94 1001.69 299.718C1002.33 299.55 1002.74 299.428 1002.98 299.105C1003.18 298.793 1003.33 297.3 1003.44 296.208C1003.64 294.18 1003.87 291.885 1004.64 290.414C1005.21 289.333 1006.46 288.787 1007.67 289.077C1009.99 289.634 1011.99 290.804 1013.77 291.84C1014.79 292.431 1015.75 292.999 1016.59 293.322C1017.82 293.801 1018.95 293.913 1020.13 294.035C1021.22 294.147 1022.35 294.258 1023.5 294.681C1024.55 295.06 1025.25 295.684 1025.87 296.241C1026.74 297.01 1027.3 297.523 1028.57 297.389C1030.7 297.177 1035.88 294.882 1037.7 294.013L1038.41 293.679L1038.84 294.336C1038.97 294.537 1042.03 299.339 1041.08 303.94C1040.96 304.464 1041.19 304.966 1041.62 305.188C1043.6 306.225 1044.7 307.227 1044.94 308.241C1045.22 309.389 1044.38 310.392 1042.45 311.239C1041.98 311.439 1041.51 311.606 1041.11 311.74C1041.22 312.152 1041.25 312.642 1041.04 313.155C1040.65 314.124 1039.57 314.771 1037.77 315.094C1038.21 316.074 1038.32 317.244 1038 318.291C1037.53 319.784 1036.34 320.754 1034.71 320.954C1034.37 320.999 1034.09 321.634 1033.99 321.901C1032.87 324.954 1033.86 331.874 1034.75 332.832L1035.88 334.069L1034.22 334.325C1033.88 334.381 1033.52 334.403 1033.19 334.403H1033.2ZM1026 328.453L1026.52 329.055C1026.52 329.055 1029.4 332.264 1032.67 332.587C1031.68 329.723 1031.28 324.13 1032.32 321.289C1032.9 319.695 1033.82 319.261 1034.5 319.172C1035.66 319.027 1036.12 318.325 1036.3 317.757C1036.59 316.821 1036.3 315.684 1035.58 315.06L1034 313.656L1036.12 313.5C1038.99 313.289 1039.36 312.576 1039.39 312.498C1039.48 312.286 1039.26 311.918 1039.15 311.784L1038.2 310.681L1039.6 310.325C1041.29 309.913 1043.01 309.11 1043.2 308.654C1043.15 308.498 1042.8 307.829 1040.8 306.782C1039.65 306.18 1039.06 304.888 1039.33 303.573C1039.95 300.598 1038.47 297.344 1037.72 295.974C1035.87 296.821 1031.09 298.927 1028.76 299.172C1026.71 299.383 1025.63 298.425 1024.69 297.578C1024.14 297.088 1023.62 296.631 1022.89 296.364C1021.94 296.018 1020.97 295.918 1019.96 295.818C1018.77 295.695 1017.42 295.573 1015.95 294.993C1014.98 294.615 1013.97 294.024 1012.87 293.389C1011.2 292.42 1009.31 291.317 1007.26 290.815C1006.85 290.715 1006.42 290.893 1006.23 291.239C1005.62 292.408 1005.41 294.615 1005.23 296.386C1005.03 298.403 1004.9 299.573 1004.42 300.197C1003.78 301.021 1002.88 301.266 1002.14 301.456C1001.48 301.634 1001.06 301.745 1000.83 302.102C1000.96 302.67 1002.37 304.13 1003.14 304.932C1004.85 306.726 1006.1 308.018 1005.1 309.055C1004.43 309.757 1003.09 310.046 1001.69 310.369C1000.83 310.559 999.95 310.759 999.527 310.993C998.646 311.484 996.685 314.715 996.451 316.42C998.468 317.556 1003.4 318.893 1005.26 319.339L1006.81 319.718L1003.97 322.57L1007.76 323.094L1006.7 329.701L1013.64 326.86L1014 327.027C1017.43 328.62 1023.55 330.158 1025.34 328.91L1026 328.453Z" fill="#333333"/>
<path d="M1029.84 308.709C1031.54 314.224 1028.44 320.063 1022.92 321.757C1017.41 323.45 1011.57 320.353 1009.88 314.837C1008.18 309.322 1011.28 303.484 1016.8 301.79C1022.31 300.096 1028.15 303.194 1029.84 308.709Z" fill="#333333"/>
<path d="M1008.27 300.007C1009.94 300.152 1011.64 300.297 1013.35 300.921C1014.2 301.233 1015.06 301.701 1015.81 302.347C1016.55 302.982 1017.19 303.784 1017.69 304.631L1014.79 305.846C1014.65 305.166 1014.41 304.52 1014.06 303.918C1013.7 303.328 1013.2 302.782 1012.6 302.303C1011.38 301.344 1009.82 300.654 1008.27 300.007Z" fill="#333333"/>
<path d="M1012.86 324.609C1013.3 323.617 1013.72 322.626 1014.02 321.634C1014.31 320.654 1014.47 319.673 1014.4 318.804L1017.45 319.528C1016.91 320.698 1016.15 321.645 1015.36 322.459C1014.56 323.272 1013.71 323.952 1012.86 324.609Z" fill="#333333"/>
<path d="M1030.04 322.815C1029.59 321.857 1029.11 320.899 1028.55 320.03C1027.99 319.161 1027.36 318.392 1026.64 317.824L1028.35 316.375C1028.99 317.423 1029.35 318.526 1029.59 319.595C1029.82 320.676 1029.93 321.735 1030.04 322.804V322.815Z" fill="#333333"/>
<path d="M1024.94 303.862C1025.3 304.041 1025.79 304.152 1026.31 304.208C1026.84 304.264 1027.4 304.23 1027.98 304.174C1029.13 304.052 1030.32 303.785 1031.48 303.395C1031.04 303.818 1030.56 304.208 1030.07 304.587C1029.57 304.966 1029.05 305.322 1028.5 305.656C1027.94 305.979 1027.36 306.291 1026.7 306.525C1026.04 306.759 1025.33 306.949 1024.5 306.971L1024.95 303.862H1024.94Z" fill="#333333"/>
<path d="M1013.28 314.748L1004.99 314.904L1012.43 311.261L1013.28 314.748Z" fill="#333333"/>
<path d="M1.17735 23.5654C0.475402 27.7549 8.01858 28.6685 7.59518 31.9443C7.17178 35.2201 5.01023 36.0668 5.50048 37.3927C5.99073 38.7187 8.85423 39.9777 9.96844 42.0724C11.0826 44.1671 11.0158 48.0111 11.0158 48.0111C11.0158 48.0111 17.9239 46.5404 20.364 48.2897C22.8041 50.039 22.7372 54.9081 27.5506 55.0529C32.364 55.1978 34.7372 49.415 37.1885 49.2702C39.6286 49.1253 42.4921 50.1058 42.4921 50.1058C42.4921 50.1058 44.3751 41.0362 47.584 38.8635C50.7929 36.7019 55.6843 38.1615 59.0269 36.2785C62.3807 34.3955 61.7456 29.4373 61.7456 29.4373C61.7456 29.4373 57.2108 25.9499 55.8849 23.8551C54.559 21.7604 56.1634 20.78 55.3278 18.8969C54.4921 17.0139 52.2526 15.8217 51.2832 13.8719C50.3027 11.922 49.2553 7.73258 49.2553 7.73258C49.2553 7.73258 43.8849 10.3175 40.2526 9.40389C36.6202 8.50138 33.6007 2.89693 33.6007 2.89693C33.6007 2.89693 31.4058 3.73259 30.091 3.73259C28.7762 3.73259 26.3696 1.6936 26.3696 1.6936C26.3696 1.6936 20.8208 10.1727 18.7818 10.8524C16.7428 11.532 13.6565 9.64902 13.6565 9.64902C13.6565 9.64902 14.2804 16.8691 12.8765 19.4429C11.4615 22.0056 1.65646 20.0668 1.16621 23.5766L1.17735 23.5654Z" fill="#EFE6D3"/>
<path opacity="0.3" d="M27.7401 56.1894C27.6732 56.1894 27.6063 56.1894 27.5395 56.1894C23.7958 56.078 22.4587 53.5822 21.3891 51.5655C20.8765 50.5961 20.3863 49.6936 19.7178 49.2145C18.2359 48.156 13.7456 48.6017 11.2721 49.1253L9.86819 49.4262L9.89047 47.9889C9.91275 46.9972 9.77905 44.1114 8.97682 42.6184C8.49771 41.7159 7.50607 40.9136 6.62584 40.2117C5.6342 39.4095 4.77626 38.7187 4.442 37.805C4.00746 36.6351 4.63142 35.7326 5.17738 34.9304C5.70106 34.1616 6.29159 33.2925 6.481 31.8217C6.58128 31.0529 5.56735 30.3287 4.01861 29.3036C2.03532 28 -0.42708 26.3733 0.0631712 23.4095C0.464285 20.624 4.0966 20.2674 7.30551 19.9554C8.88768 19.7994 11.5506 19.5432 11.896 18.897C12.7985 17.2479 12.7763 12.4123 12.5423 9.76046L12.3417 7.50977L14.2693 8.69083C15.2944 9.31478 17.3334 10.1616 18.4364 9.78273C19.4392 9.43733 22.871 5.00279 25.4336 1.08078L26.1467 0L27.1384 0.835655C28.13 1.67131 29.5896 2.60724 30.1133 2.60724C31.0047 2.60724 32.6983 2.039 33.2108 1.84959L34.1467 1.49303L34.6258 2.37326C35.4058 3.81059 37.9796 7.67691 40.5423 8.312C43.7289 9.11423 48.7206 6.74095 48.7763 6.71866L50.0353 6.11702L50.3807 7.47635C50.3807 7.47635 51.4058 11.5655 52.3194 13.3816C52.7206 14.1727 53.4114 14.8524 54.1356 15.5766C54.9935 16.4234 55.8738 17.2925 56.3863 18.4513C56.91 19.6323 56.7428 20.5683 56.598 21.3148C56.4643 22.0501 56.3863 22.4958 56.8654 23.2535C57.8682 24.8357 61.2442 27.61 62.4587 28.546L62.8375 28.8357L62.8933 29.3036C62.9267 29.5376 63.5729 35.053 59.5952 37.2814C57.7568 38.3176 55.6398 38.4513 53.5785 38.5961C51.5506 38.7298 49.6342 38.8635 48.2192 39.8106C46.1579 41.1922 44.2972 46.9972 43.6063 50.3287L43.3389 51.5989L42.1133 51.1866C42.1133 51.1866 39.4281 50.2841 37.2442 50.4067C36.6871 50.4401 35.7289 51.3983 34.8821 52.2563C33.2219 53.9276 30.9601 56.2006 27.7178 56.2006L27.7401 56.1894ZM16.286 46.2841C18.0799 46.2841 19.896 46.5293 21.0437 47.3538C22.1467 48.1337 22.7818 49.337 23.3946 50.4847C24.4977 52.5571 25.2999 53.8273 27.5952 53.8941C29.9685 53.961 31.7289 52.1894 33.2777 50.6295C34.5813 49.3259 35.6955 48.1894 37.1328 48.1114C38.7596 48.0223 40.52 48.3677 41.6565 48.6574C42.3139 45.961 44.0966 39.8329 46.9601 37.9053C48.8877 36.6128 51.2052 36.4457 53.4448 36.3009C55.3278 36.1783 57.1105 36.0557 58.4921 35.2758C60.6203 34.0724 60.7206 31.1421 60.676 30.0279C59.4615 29.0697 56.1523 26.3621 54.949 24.468C53.9796 22.9415 54.2025 21.7604 54.3696 20.8914C54.481 20.2897 54.5479 19.8997 54.3139 19.3649C53.9796 18.6072 53.2777 17.9164 52.5423 17.1922C51.7066 16.3677 50.8487 15.5209 50.2916 14.3956C49.6119 13.0362 48.9211 10.7521 48.52 9.31478C46.6036 10.0613 42.8933 11.2535 40.0075 10.5293C36.8208 9.72703 34.1802 6.00559 33.1217 4.30085C32.286 4.56826 31.0604 4.89138 30.1245 4.89138C29.0325 4.89138 27.6509 4.06687 26.6816 3.36492C24.8543 6.08359 21.1328 11.2981 19.183 11.9554C17.8013 12.4123 16.1746 12.0223 14.949 11.5432C15.0381 13.9944 14.9935 18.0279 13.9128 20.0112C12.9768 21.7048 10.3362 21.961 7.53949 22.2396C5.40022 22.4513 2.481 22.7298 2.33615 23.7549V23.7883C2.10217 25.1922 3.29437 26.0947 5.2888 27.4095C7.04925 28.5683 9.04368 29.883 8.75398 32.1226C8.49771 34.1504 7.63977 35.3984 7.07153 36.234C6.88211 36.5237 6.6147 36.9137 6.59242 37.0362C6.71498 37.3482 7.4615 37.961 8.06317 38.4401C9.11052 39.2869 10.2916 40.234 10.9935 41.5599C11.7958 43.0641 12.052 45.2479 12.1412 46.663C13.2108 46.4958 14.7373 46.3064 16.2972 46.3064L16.286 46.2841Z" fill="#333333"/>
<path d="M32.4977 40.3676C39.1867 40.3676 44.6091 34.9451 44.6091 28.2562C44.6091 21.5672 39.1867 16.1448 32.4977 16.1448C25.8088 16.1448 20.3863 21.5672 20.3863 28.2562C20.3863 34.9451 25.8088 40.3676 32.4977 40.3676Z" fill="#333333"/>
<path d="M29.5227 18.3957C29.389 15.9444 29.1104 13.4709 28.7539 10.9973C30.0241 13.1589 31.2163 15.3761 32.2971 17.6826L29.5227 18.3957Z" fill="#333333"/>
<path d="M40.0966 21.8385C41.0548 21.3705 41.9684 21.092 42.8821 20.8469C43.7957 20.6018 44.6982 20.39 45.6119 20.2229C44.9099 20.8246 44.2303 21.4485 43.5952 22.0836C42.9601 22.7187 42.3473 23.3984 41.9127 24.0447L40.0966 21.8385Z" fill="#333333"/>
<path d="M12.6313 27.4763C14.0464 27.7994 15.4837 27.8217 16.8653 27.6658C18.247 27.5098 19.5951 27.1755 20.8542 26.7075L21.3556 29.5265C19.7957 29.5599 18.2581 29.4262 16.7762 29.0919C15.2943 28.7688 13.8681 28.234 12.6313 27.4763Z" fill="#333333"/>
<path d="M27.0158 34.886C25.9127 36.4236 24.5868 37.549 23.2163 38.4738C21.8347 39.3874 20.3974 40.1228 18.9155 40.6799C20.0297 39.5657 20.9879 38.3401 21.7902 37.0699C22.1913 36.4348 22.5255 35.7774 22.8041 35.1312C23.0826 34.4849 23.272 33.8276 23.3835 33.2036L27.0158 34.886Z" fill="#333333"/>
<path d="M32.7205 36.4905C32.999 37.4933 32.9767 38.3401 32.8987 39.1311C32.8208 39.9222 32.6536 40.6465 32.4531 41.3484C32.0519 42.7412 31.5283 44.0448 30.9155 45.2816C30.8709 43.9111 30.7372 42.5406 30.4586 41.2593C30.3138 40.6242 30.1467 40.0002 29.9127 39.4654C29.6898 38.9306 29.4001 38.4515 29.1104 38.2286L32.7205 36.4905Z" fill="#333333"/>
<path d="M41.6007 27.5657C43.0269 27.9111 44.3528 28.4013 45.5784 29.003C46.804 29.6046 47.9628 30.2955 48.999 31.1088C47.7066 30.9194 46.4141 30.886 45.1662 30.964C43.9183 31.042 42.7038 31.2537 41.6007 31.5768V27.5768V27.5657Z" fill="#333333"/>
</svg>
