<svg width="57" height="56" viewBox="0 0 57 56" fill="none" xmlns="http://www.w3.org/2000/svg">
<path d="M51.3983 14.1393C51.2646 17.5042 45.6156 21.7382 45.6156 22.6741C45.6156 23.6101 50.0502 24.7577 50.0502 24.7577C50.0502 24.7577 47.9331 27.9666 46.6184 28.858L51.3872 29.5265C51.3872 29.5265 49.6045 31.5432 50.4513 32.5905C51.2869 33.6379 55.8329 36.156 55.4541 36.8245C55.0864 37.493 52.156 37.4931 51.8217 38.3064C51.4875 39.1198 54.7744 40.8579 54.4067 41.8719C54.039 42.8747 49.9053 44.2563 47.5877 44.5571C45.2702 44.8579 43.3538 44.2006 43.3538 44.2006L42.5961 46.1616C42.5961 46.1616 40.3788 45.1031 38.8858 43.4095C38.9415 46.0836 40.3343 49.2368 40.3343 49.2368C40.3343 49.2368 36.2006 47.4206 35.1421 48.3789C34.0836 49.3371 35.1978 52.156 33.4819 53.1142C31.766 54.0725 27.2758 50.3398 27.2758 50.3398C27.2758 50.3398 22.3844 54.1727 19.5098 54.7298C19.5098 54.7298 20.312 52.0557 19.1086 50.7521C17.9053 49.4485 10.8412 51.3538 8.32312 49.8496C8.32312 49.8496 10.4958 46.7187 9.88301 43.6435C9.28133 40.5683 6.8078 37.7493 4.73538 37.5933C5.69359 35.8774 5.03622 32.2452 1.40391 30.6853C4.37884 28.1114 5.83843 26.8524 5.83843 25.1922C5.83843 23.532 2.00559 22.1727 2.10587 20.9025C2.20615 19.6435 5.68247 19.4429 6.49584 19.5432C4.47913 17.7828 3.5209 12.4345 4.22285 10.2618C5.73817 12.078 12.7911 12.8802 14.2507 12.78C16.5683 9.64904 16.4234 7.33148 16.4234 7.33148C17.8384 8.23399 18.9415 9.29251 21.1142 8.33429C23.2869 7.37607 21.6713 3.69919 25.3259 1.92761C25.0474 4.20059 26.0056 6.71869 27.2646 6.76326C28.5237 6.81897 36.9471 1.16992 36.9471 1.16992C36.9471 1.16992 38.4624 5.961 40.9248 7.11978C43.3983 8.27855 46.3176 7.42064 46.3176 7.42064C46.3176 7.42064 46.0167 12.4123 47.5766 13.571C49.1365 14.7298 51.3761 14.1059 51.3761 14.1059L51.3983 14.1393Z" fill="#EFE6D3"/>
<path opacity="0.3" d="M0.011191 30.9192L0.924849 30.1281C3.71036 27.7215 5.10312 26.5181 5.10312 25.2033C5.10312 24.7019 4.08918 23.9443 3.34266 23.3983C2.28416 22.6072 1.29253 21.8719 1.37052 20.8579C1.39281 20.5682 1.51536 20.1337 1.98333 19.7549C2.68528 19.1866 3.93318 18.9304 4.96939 18.8301C3.43178 16.2785 2.89698 11.9666 3.52093 10.039L3.94434 8.74652L4.81342 9.79388C5.94991 11.1532 11.8218 12.0446 13.8719 12.0557C15.7549 9.38162 15.6769 7.40945 15.6769 7.39831L15.6101 5.9387L16.8357 6.71866C17.0028 6.83008 17.17 6.93037 17.326 7.04179C18.4959 7.83288 19.2758 8.34541 20.8134 7.66574C21.3928 7.40947 21.5599 6.8078 21.8162 5.74931C22.1505 4.34541 22.6184 2.41781 25.0028 1.27018L26.2396 0.668529L26.0725 2.03898C25.883 3.61001 26.351 5.12535 26.8858 5.74931C27.0307 5.92758 27.1867 6.02786 27.2981 6.02786C28.0892 5.93872 32.624 3.17549 36.5237 0.557102L37.3594 -8.2581e-07L37.6602 0.9582C38.0502 2.20611 39.4652 5.61561 41.248 6.45126C43.4318 7.47633 46.0836 6.71865 46.1059 6.70751L47.131 6.40668L47.0641 7.47631C46.9527 9.38161 47.1755 12.3454 48.0223 12.9805C49.2591 13.9053 51.1532 13.4039 51.1755 13.3927L52.1672 13.1253L52.1338 14.1504C52.0335 16.6128 49.5599 19.2312 47.7549 21.1476C47.2758 21.649 46.7076 22.2618 46.4513 22.5961C46.9861 22.9749 48.6017 23.5989 50.2285 24.0111L51.2535 24.2786L50.6741 25.1588C50.507 25.4039 49.404 27.0641 48.2786 28.3231L52.8803 28.9694L51.9555 30.0167C51.3315 30.7298 50.7856 31.7994 51.0418 32.1003C51.3204 32.4457 52.3232 33.1476 53.2034 33.7604C55.4429 35.3203 56.6686 36.1783 56.1226 37.1699C55.7883 37.7827 54.9304 37.9833 53.9276 38.2061C53.5599 38.2841 53.014 38.4067 52.6909 38.5404C52.9026 38.7855 53.2814 39.1198 53.5265 39.3426C54.4847 40.2117 55.4875 41.1031 55.1198 42.117C54.5293 43.7214 49.5042 45.0585 47.6881 45.2925C46.0613 45.5042 44.624 45.2813 43.8106 45.0919L43.0084 47.1866L42.273 46.8412C42.2062 46.8078 41.0808 46.273 39.8775 45.337C40.2675 47.2201 41.0028 48.9025 41.014 48.9248L41.7939 50.6964L40.0223 49.9164C37.9611 49.0139 35.9666 48.6462 35.6324 48.9248C35.3984 49.1365 35.3538 49.8273 35.3204 50.429C35.2535 51.5878 35.1532 53.0251 33.8385 53.7604C32.0446 54.7632 28.7577 52.468 27.2535 51.2869C25.9276 52.2785 22.1505 54.9749 19.6435 55.454L18.4179 55.688L18.7744 54.4958C18.9638 53.8719 19.287 52.0557 18.5404 51.2423C18.195 50.8746 15.8998 51.0084 14.5404 51.0864C12.0335 51.2312 9.43738 51.376 7.92206 50.4735L7.23123 50.0613L7.68805 49.4039C7.68805 49.4039 9.67135 46.4958 9.12539 43.7772C8.546 40.8579 6.25074 38.4512 4.66857 38.3287L3.48751 38.2396L4.06689 37.2033C4.44572 36.5348 4.468 35.4652 4.13373 34.4735C3.66577 33.1031 2.59613 31.9888 1.10309 31.3537L3.67974e-05 30.8746L0.011191 30.9192ZM6.60727 25.2033C6.60727 27.0195 5.3148 28.3008 2.75213 30.5404C4.11146 31.376 5.09197 32.5905 5.58222 34.0279C5.93877 35.0752 5.99448 36.1448 5.7605 37.0696C7.91092 37.8496 10.0502 40.5794 10.6296 43.5097C11.0975 45.9164 10.0725 48.2897 9.42621 49.493C10.7187 49.8273 12.7688 49.7159 14.4736 49.6156C16.9137 49.4707 18.8524 49.3705 19.6658 50.2507C20.5571 51.2089 20.6129 52.624 20.4903 53.6602C23.1755 52.6017 26.7744 49.7939 26.8078 49.7604L27.2869 49.3816L27.7549 49.7716C29.7271 51.4095 32.3566 52.8914 33.1031 52.468C33.6713 52.156 33.7493 51.454 33.8162 50.351C33.8719 49.415 33.9388 48.4457 34.6296 47.8217C35.5432 46.9972 37.4819 47.4095 39.0307 47.922C38.6296 46.7075 38.1616 45.0028 38.1393 43.4206L38.1059 41.3705L39.4652 42.9081C40.3343 43.8997 41.482 44.6574 42.2173 45.0919L42.9304 43.2535L43.6212 43.4875C43.6212 43.4875 45.4151 44.078 47.5098 43.8106C49.8719 43.4986 53.1142 42.2841 53.6825 41.6601C53.5265 41.3705 52.9026 40.8022 52.546 40.4791C51.6435 39.6657 50.7856 38.8969 51.1532 38.0167C51.4764 37.2368 52.5237 37.0028 53.6156 36.7465C53.8496 36.6908 54.1616 36.6239 54.429 36.5459C53.9165 36.1003 52.9805 35.4429 52.3566 35.0084C51.2535 34.2396 50.2953 33.571 49.8831 33.0585C49.1477 32.156 49.5822 30.9638 50.0836 30.0947L44.6017 29.3259L46.2173 28.234C46.9527 27.7326 48.0892 26.2618 48.8468 25.2033C44.8803 24.0334 44.8803 23.0195 44.8803 22.6741C44.8803 22.0724 45.4039 21.493 46.6853 20.1337C47.9889 18.7521 49.8608 16.7688 50.4624 15.0418C49.5488 15.0975 48.234 15.0084 47.1644 14.2061C45.7382 13.1476 45.5599 10.0613 45.5711 8.37882C44.4123 8.55709 42.4402 8.66851 40.6351 7.82171C38.5961 6.8635 37.1922 3.88856 36.5906 2.35096C33.3148 4.52366 28.468 7.58773 27.2647 7.54316C26.8858 7.53202 26.3176 7.37605 25.7716 6.72981C25.1143 5.96101 24.6797 4.70195 24.5794 3.37604C23.7772 4.14484 23.5432 5.10307 23.3092 6.10586C23.0307 7.26463 22.741 8.4791 21.4485 9.04735C19.4875 9.91643 18.1839 9.35932 17.0697 8.65737C16.8468 9.72701 16.2897 11.3649 14.897 13.2479L14.6853 13.5264L14.3399 13.5487C13.2368 13.6267 7.54322 13.1142 4.77999 11.61C4.63515 13.9499 5.57109 17.727 7.01956 18.9861L8.86911 20.6017L6.42903 20.3008C5.50424 20.1894 3.18668 20.5237 2.89698 20.9694C3.0084 21.2479 3.78835 21.8273 4.25632 22.1838C5.35938 23.0084 6.61843 23.9443 6.61843 25.2033L6.60727 25.2033Z" fill="#333333"/>
<path d="M16.2563 28.5014C16.2563 34.9442 21.4793 40.1672 27.9221 40.1672C34.3649 40.1672 39.5878 34.9442 39.5878 28.5014C39.5878 22.0586 34.3649 16.8357 27.9221 16.8357C21.4793 16.8357 16.2563 22.0586 16.2563 28.5014Z" fill="#333333"/>
<path d="M23.7996 44.4903C16.6798 42.663 11.4207 36.1894 11.4207 28.5014C11.4207 19.3983 18.8079 12 27.9221 12C31.6547 12 35.1087 13.2368 37.8719 15.3426C36.5572 15.0084 35.1756 14.8301 33.7494 14.8301C24.6352 14.8301 17.248 22.2061 17.248 31.3315C17.248 36.702 19.8107 41.4819 23.7884 44.4903L23.7996 44.4903Z" fill="#333333"/>
<path d="M41.7828 21.7382C41.5934 22.2507 41.2368 22.7075 40.8803 23.1309C40.5126 23.5543 40.1115 23.9554 39.6992 24.3231C39.287 24.7019 38.8524 25.0585 38.4068 25.4039C37.9611 25.7493 37.5154 26.0724 37.0252 26.4067L36.1784 24.5905C36.6575 24.4568 37.17 24.2785 37.6714 24.1003C38.1728 23.922 38.663 23.7214 39.1421 23.4986C39.6324 23.2757 40.1004 23.0418 40.5461 22.7632C40.9917 22.4847 41.4374 22.1727 41.7717 21.7493L41.7828 21.7382Z" fill="#333333"/>
<path d="M38.184 30.7632C38.3622 31.1754 38.6853 31.6211 39.0642 32.0557C39.443 32.4902 39.8775 32.9136 40.3344 33.3259C41.248 34.1392 42.2619 34.8969 43.3204 35.5877C42.0725 35.3537 40.8246 35.0529 39.5878 34.6295C38.9639 34.4178 38.3399 34.1838 37.7271 33.8718C37.1032 33.5599 36.4792 33.2033 35.8552 32.6573L38.1951 30.7632L38.184 30.7632Z" fill="#333333"/>
<path d="M32.3788 38.117C32.0669 38.351 31.7549 38.663 31.4986 39.0641C31.2535 39.4763 31.0529 39.9555 30.9081 40.468C30.6295 41.5153 30.5404 42.6852 30.6518 43.8552C30.351 43.3426 30.1059 42.7967 29.8942 42.2284C29.6825 41.6602 29.5154 41.0585 29.4039 40.4234C29.3037 39.7883 29.2702 39.1198 29.3371 38.4179C29.4151 37.7159 29.6268 36.9917 29.9833 36.2786L32.3788 38.1059L32.3788 38.117Z" fill="#333333"/>
<path d="M15.7438 30.039C14.9527 30.4178 14.3065 30.4735 13.6714 30.5404C13.0363 30.5961 12.4458 30.5849 11.8553 30.5626C10.6742 30.5069 9.53772 30.351 8.41237 30.1504C9.51544 29.8496 10.5851 29.5042 11.6101 29.0808C12.1227 28.8691 12.6129 28.6351 13.0474 28.3788C13.4708 28.1337 13.8942 27.8217 14.0279 27.5654L15.7438 30.039Z" fill="#333333"/>
<path d="M15.7103 22.4847C15.5209 22.3955 15.3092 22.3064 15.1532 22.2173C15.0084 22.117 14.8524 22.0279 14.7298 21.9276L14.3733 21.6268L14.0502 21.3259C13.6379 20.9248 13.2702 20.5125 12.9248 20.0891C12.234 19.2535 11.5989 18.3956 10.9972 17.5265C11.9332 18.0279 12.8802 18.4847 13.8273 18.8858C14.3064 19.0864 14.7744 19.2646 15.2423 19.3983L15.5877 19.4875L15.9109 19.5543C16.0112 19.5655 16.1003 19.5655 16.1894 19.5766C16.2786 19.5766 16.312 19.5432 16.3677 19.5432L15.7215 22.4847L15.7103 22.4847Z" fill="#333333"/>
</svg>
