<svg width="1617" height="561" viewBox="0 0 1617 561" fill="none" xmlns="http://www.w3.org/2000/svg">
<path d="M1614.57 37.8162C1615.29 38.195 1615.64 39.0418 1615.45 39.8441C1614.59 43.3761 1612.16 46.2842 1611.25 48.6463C1610.24 51.2201 1610.71 53.3482 1609.89 55.5767C1609.06 57.8051 1606.86 58.3065 1607.13 61.0474C1607.41 63.7995 1610.6 70.4625 1610.6 70.4625C1610.6 70.4625 1605.95 73.4708 1601.66 72.5794C1600.77 72.39 1599.86 72.78 1599.43 73.5823C1598.82 74.7522 1597.89 76.2229 1596.96 76.4569C1595.38 76.8468 1594.23 72.2006 1594.23 72.2006C1594.23 72.2006 1591.49 74.6519 1591.03 68.5571C1589.42 70.3733 1585.74 70.0836 1585.36 66.9973C1584.98 63.8998 1573.67 64.9248 1571.98 66.4847C1571.31 62.1616 1575.77 58.2396 1575.77 58.2396C1574.13 55.8775 1576.18 49.014 1577.58 46.0056L1574.29 37.9499L1581.57 39.1087L1582.22 34.4402L1585.22 37.4263C1585.22 37.4263 1586.99 30.0836 1588.53 27.9109C1590.43 27.7661 1594.52 30.2173 1595.22 31.4541C1595.91 32.6909 1596.1 35.9666 1596.99 36.8246C1597.89 37.6825 1602.24 31.5655 1603.69 32.3789C1605.14 33.1922 1604.54 35.1421 1605.77 36.078C1606.79 36.8468 1612.2 36.5683 1614.6 37.8162L1614.57 37.8162Z" fill="#EFE6D3"/>
<path opacity="0.3" d="M1571 65.5822C1571 62.1505 1573.54 59.1867 1574.65 58.0502C1573.45 54.9973 1575.32 48.8803 1576.59 45.9833L1572.84 36.8134L1580.79 38.0836L1581.56 32.5349L1584.72 35.6769C1585.34 33.3594 1586.59 29.0586 1587.77 27.3872L1588.01 27.0418L1588.44 27.0084C1590.78 26.8301 1595.14 29.5265 1595.98 31.0084C1596.35 31.6658 1596.56 32.6352 1596.79 33.6602C1596.95 34.351 1597.16 35.3204 1597.4 35.8552C1597.87 35.521 1598.67 34.7522 1599.23 34.2173C1601.13 32.4012 1602.75 30.8413 1604.1 31.5989C1605.19 32.2118 1605.46 33.248 1605.69 34.0725C1605.85 34.7187 1605.97 35.1198 1606.3 35.365C1606.61 35.5655 1608.1 35.7104 1609.19 35.8218C1611.22 36.0224 1613.52 36.2563 1614.99 37.0251C1616.07 37.5934 1616.62 38.8413 1616.33 40.0558C1615.77 42.3733 1614.6 44.3789 1613.56 46.1505C1612.97 47.1755 1612.4 48.1338 1612.08 48.9694C1611.6 50.2062 1611.49 51.3315 1611.37 52.5126C1611.26 53.6045 1611.14 54.7298 1610.72 55.8886C1610.34 56.936 1609.72 57.6379 1609.16 58.2507C1608.39 59.1198 1607.88 59.6881 1608.01 60.9583C1608.23 63.0864 1610.52 68.2675 1611.39 70.0836L1611.72 70.7967L1611.07 71.2201C1610.87 71.3538 1606.06 74.4179 1601.46 73.4596C1600.94 73.3482 1600.44 73.5711 1600.21 74.0056C1599.18 75.9889 1598.18 77.0808 1597.16 77.326C1596.01 77.6045 1595.01 76.7689 1594.16 74.8302C1593.96 74.3622 1593.8 73.8942 1593.66 73.4931C1593.25 73.6045 1592.76 73.638 1592.25 73.4263C1591.28 73.0363 1590.63 71.9555 1590.31 70.1505C1589.33 70.5962 1588.16 70.7076 1587.11 70.3845C1585.62 69.9165 1584.65 68.7243 1584.45 67.0975C1584.4 66.7521 1583.77 66.4736 1583.5 66.3733C1580.45 65.2591 1573.53 66.2396 1572.57 67.131L1571.33 68.2675L1571.08 66.6073C1571.02 66.2619 1571 65.9053 1571 65.5711L1571 65.5822ZM1576.95 58.3845L1576.35 58.9081C1576.35 58.9081 1573.14 61.7828 1572.82 65.0586C1575.68 64.0669 1581.27 63.6658 1584.11 64.702C1585.71 65.2814 1586.14 66.2062 1586.23 66.8858C1586.38 68.0446 1587.08 68.5015 1587.65 68.6797C1588.58 68.9694 1589.72 68.6797 1590.34 67.9666L1591.75 66.3845L1591.9 68.5014C1592.11 71.3761 1592.83 71.7438 1592.91 71.7772C1593.12 71.8664 1593.48 71.6435 1593.62 71.5321L1594.72 70.585L1595.08 71.9889C1595.49 73.6714 1596.29 75.3984 1596.75 75.5878C1596.91 75.5321 1597.57 75.1867 1598.62 73.1811C1599.22 72.0335 1600.52 71.443 1601.83 71.7104C1604.8 72.3343 1608.06 70.8524 1609.43 70.1059C1608.58 68.2563 1606.48 63.4764 1606.23 61.1477C1606.02 59.0975 1606.98 58.0168 1607.82 57.0697C1608.31 56.5237 1608.77 56.0001 1609.04 55.2758C1609.38 54.3287 1609.48 53.3594 1609.58 52.3455C1609.71 51.1533 1609.83 49.8051 1610.41 48.3343C1610.79 47.3649 1611.38 46.351 1612.01 45.2591C1612.98 43.5878 1614.09 41.6937 1614.59 39.6435C1614.69 39.2313 1614.51 38.8078 1614.16 38.6184C1612.99 38.0056 1610.79 37.7939 1609.02 37.6156C1607 37.4151 1605.83 37.2814 1605.21 36.8023C1604.38 36.1672 1604.14 35.2647 1603.95 34.5293C1603.77 33.8608 1603.66 33.4485 1603.3 33.2145C1602.73 33.3482 1601.27 34.7521 1600.47 35.5209C1598.68 37.2368 1597.38 38.4847 1596.35 37.4819C1595.65 36.8134 1595.36 35.4764 1595.03 34.0725C1594.84 33.2145 1594.64 32.3343 1594.41 31.9109C1593.92 31.0307 1590.69 29.0697 1588.98 28.8357C1587.85 30.8524 1586.51 35.7883 1586.06 37.6491L1585.69 39.1978L1582.83 36.3566L1582.31 40.1449L1575.7 39.0864L1578.54 46.0279L1578.38 46.3844C1576.78 49.8162 1575.25 55.9332 1576.49 57.7271L1576.95 58.3845Z" fill="#333333"/>
<path d="M1596.69 62.2284C1591.18 63.922 1585.34 60.8245 1583.65 55.3092C1581.95 49.7939 1585.05 43.9555 1590.57 42.2619C1596.08 40.5683 1601.92 43.6658 1603.61 49.1811C1605.31 54.6964 1602.21 60.5348 1596.69 62.2284Z" fill="#333333"/>
<path d="M1605.4 40.6577C1605.25 42.329 1605.11 44.0226 1604.48 45.7385C1604.17 46.5853 1603.7 47.4432 1603.06 48.1897C1602.42 48.9362 1601.62 49.5713 1600.77 50.0727L1599.56 47.1758C1600.24 47.031 1600.88 46.797 1601.48 46.4404C1602.08 46.0839 1602.62 45.5825 1603.1 44.9808C1604.06 43.7664 1604.75 42.2065 1605.4 40.6577Z" fill="#333333"/>
<path d="M1580.79 45.248C1581.79 45.6826 1582.78 46.106 1583.77 46.4068C1584.75 46.6965 1585.73 46.8525 1586.6 46.7857L1585.87 49.8386C1584.7 49.2926 1583.76 48.5349 1582.94 47.7439C1582.13 46.9416 1581.45 46.0948 1580.79 45.248Z" fill="#333333"/>
<path d="M1582.59 62.429C1583.55 61.9722 1584.5 61.4931 1585.37 60.936C1586.24 60.3789 1587.01 59.7438 1587.58 59.0195L1589.03 60.7354C1587.98 61.3705 1586.88 61.7382 1585.81 61.9722C1584.73 62.2062 1583.67 62.3176 1582.6 62.429L1582.59 62.429Z" fill="#333333"/>
<path d="M1601.54 57.326C1601.36 57.6826 1601.25 58.1729 1601.19 58.6965C1601.14 59.2202 1601.17 59.7885 1601.23 60.3678C1601.35 61.5155 1601.62 62.7077 1602.01 63.8664C1601.58 63.4207 1601.19 62.9417 1600.82 62.4514C1600.44 61.95 1600.08 61.4375 1599.75 60.8804C1599.42 60.3233 1599.11 59.7439 1598.88 59.0865C1598.64 58.4291 1598.45 57.716 1598.43 56.8804L1601.54 57.3372L1601.54 57.326Z" fill="#333333"/>
<path d="M1590.65 45.6603L1590.5 37.3706L1594.14 44.8135L1590.65 45.6603Z" fill="#333333"/>
<path d="M33.05 1.1775C28.8606 0.475553 27.9469 8.01873 24.6712 7.59533C21.3954 7.17193 20.5486 5.01038 19.2227 5.50063C17.8968 5.99088 16.6378 8.85438 14.5431 9.96859C12.4483 11.0828 8.60435 11.0159 8.60435 11.0159C8.60435 11.0159 10.0751 17.924 8.3258 20.3641C6.57649 22.8042 1.7074 22.7374 1.56256 27.5508C1.41771 32.3641 7.20044 34.7374 7.34529 37.1886C7.49014 39.6288 6.50963 42.4923 6.50963 42.4923C6.50963 42.4923 15.5793 44.3753 17.752 47.5842C19.9135 50.7931 18.4539 55.6845 20.3369 59.0271C22.2199 62.3808 27.1781 61.7457 27.1781 61.7457C27.1781 61.7457 30.6656 57.2109 32.7603 55.885C34.855 54.5591 35.8355 56.1636 37.7185 55.3279C39.6015 54.4923 40.7937 52.2527 42.7436 51.2834C44.6935 50.3028 48.8829 49.2555 48.8829 49.2555C48.8829 49.2555 46.2979 43.885 47.2116 40.2527C48.1141 36.6204 53.7185 33.6009 53.7185 33.6009C53.7185 33.6009 52.8829 31.4059 52.8829 30.0912C52.8829 28.7764 54.9219 26.3697 54.9219 26.3697C54.9219 26.3697 46.4428 20.821 45.7631 18.782C45.0834 16.743 46.9665 13.6566 46.9665 13.6566C46.9665 13.6566 39.7464 14.2806 37.1726 12.8767C34.6099 11.4616 36.5486 1.65661 33.0389 1.16636L33.05 1.1775Z" fill="#EFE6D3"/>
<path opacity="0.3" d="M0.426066 27.7401C0.426066 27.6732 0.426066 27.6063 0.426066 27.5395C0.537486 23.7958 3.0333 22.4587 5.05002 21.3891C6.01937 20.8765 6.92187 20.3863 7.40097 19.7178C8.45947 18.2359 8.01381 13.7456 7.49013 11.2721L7.18927 9.86819L8.62661 9.89047C9.61825 9.91275 12.5041 9.77905 13.9971 8.97682C14.8996 8.49771 15.7018 7.50607 16.4038 6.62584C17.206 5.6342 17.8968 4.77626 18.8105 4.442C19.9804 4.00746 20.8829 4.63142 21.6851 5.17738C22.4539 5.70106 23.323 6.29158 24.7938 6.481C25.5626 6.58128 26.2868 5.56735 27.3118 4.0186C28.6155 2.03532 30.2422 -0.427081 33.206 0.0631701C35.9915 0.464284 36.3481 4.0966 36.66 7.30551C36.816 8.88768 37.0723 11.5506 37.7185 11.896C39.3675 12.7985 44.2032 12.7763 46.855 12.5423L49.1057 12.3417L47.9246 14.2693C47.3007 15.2944 46.4539 17.3334 46.8327 18.4364C47.1782 19.4392 51.6127 22.871 55.5347 25.4336L56.6155 26.1467L55.7798 27.1384C54.9442 28.13 54.0082 29.5896 54.0082 30.1133C54.0082 31.0047 54.5765 32.6983 54.7659 33.2108L55.1224 34.1467L54.2422 34.6258C52.8049 35.4058 48.9386 37.9796 48.3035 40.5423C47.5012 43.7289 49.8745 48.7206 49.8968 48.7763L50.4985 50.0353L49.1391 50.3807C49.1391 50.3807 45.05 51.4058 43.2338 52.3194C42.4428 52.7206 41.7631 53.4114 41.0389 54.1356C40.1921 54.9935 39.323 55.8738 38.1642 56.3863C36.9832 56.91 36.0472 56.7428 35.3007 56.598C34.5653 56.4643 34.1197 56.3863 33.362 56.8654C31.7798 57.8682 29.0055 61.2442 28.0695 62.4587L27.7798 62.8375L27.3118 62.8933C27.0778 62.9267 21.5625 63.5729 19.3341 59.5952C18.2979 57.7568 18.1642 55.6398 18.0194 53.5785C17.8857 51.5506 17.752 49.6342 16.8049 48.2192C15.4233 46.1579 9.61825 44.2972 6.28677 43.6063L5.01659 43.3389L5.42884 42.1133C5.42884 42.1133 6.33133 39.4281 6.20877 37.2442C6.17534 36.6871 5.21715 35.7289 4.35921 34.8821C2.6879 33.2219 0.414916 30.9601 0.414916 27.7178L0.426066 27.7401ZM10.3313 16.286C10.3313 18.0799 10.0862 19.896 9.26171 21.0437C8.48177 22.1467 7.27843 22.7818 6.1308 23.3946C4.05838 24.4977 2.78818 25.2999 2.72133 27.5952C2.65447 29.9685 4.42605 31.7289 5.98595 33.2777C7.28956 34.5813 8.42607 35.6955 8.50406 37.1328C8.5932 38.7596 8.24777 40.52 7.95808 41.6565C10.6545 42.3139 16.7826 44.0966 18.7102 46.9601C20.0026 48.8877 20.1698 51.2052 20.3146 53.4448C20.4372 55.3278 20.5598 57.1105 21.3397 58.4921C22.543 60.6203 25.4734 60.7206 26.5876 60.676C27.5458 59.4615 30.2533 56.1523 32.1475 54.949C33.6739 53.9796 34.855 54.2025 35.7241 54.3696C36.3258 54.481 36.7157 54.5479 37.2506 54.3139C38.0082 53.9796 38.699 53.2777 39.4233 52.5423C40.2478 51.7066 41.0946 50.8487 42.2199 50.2916C43.5792 49.6119 45.8634 48.9211 47.3007 48.52C46.5542 46.6036 45.362 42.8933 46.0862 40.0075C46.8884 36.8208 50.6099 34.1802 52.3146 33.1217C52.0472 32.286 51.7241 31.0604 51.7241 30.1245C51.7241 29.0325 52.5486 27.6509 53.2506 26.6816C50.5319 24.8543 45.3174 21.1328 44.66 19.183C44.2032 17.8013 44.5932 16.1746 45.0723 14.949C42.621 15.0381 38.5876 14.9935 36.6043 13.9128C34.9107 12.9768 34.6544 10.3361 34.3759 7.53949C34.1642 5.40022 33.8857 2.481 32.8606 2.33615L32.8272 2.33615C31.4233 2.10217 30.5208 3.29437 29.206 5.2888C28.0472 7.04924 26.7324 9.04367 24.4929 8.75398C22.465 8.49771 21.2171 7.63977 20.3815 7.07153C20.0918 6.88211 19.7018 6.6147 19.5792 6.59242C19.2673 6.71498 18.6545 7.4615 18.1754 8.06317C17.3286 9.11052 16.3815 10.2916 15.0556 10.9935C13.5514 11.7958 11.3676 12.052 9.95252 12.1412C10.1196 13.2108 10.3091 14.7373 10.3091 16.2972L10.3313 16.286Z" fill="#333333"/>
<path d="M16.2478 32.4976C16.2478 39.1866 21.6703 44.6091 28.3592 44.6091C35.0482 44.6091 40.4706 39.1866 40.4706 32.4976C40.4706 25.8087 35.0482 20.3862 28.3592 20.3862C21.6703 20.3862 16.2478 25.8087 16.2478 32.4976Z" fill="#333333"/>
<path d="M38.2199 29.5227C40.6712 29.389 43.1447 29.1105 45.6183 28.7539C43.4567 30.0241 41.2395 31.2163 38.933 32.2971L38.2199 29.5227Z" fill="#333333"/>
<path d="M34.777 40.0967C35.245 41.0549 35.5235 41.9685 35.7687 42.8822C36.0138 43.7958 36.2255 44.6984 36.3926 45.612C35.791 44.9101 35.167 44.2304 34.5319 43.5953C33.8968 42.9602 33.2171 42.3474 32.5709 41.9128L34.777 40.0967Z" fill="#333333"/>
<path d="M29.1392 12.6313C28.8161 14.0464 28.7938 15.4837 28.9498 16.8653C29.1058 18.247 29.4401 19.5951 29.908 20.8542L27.0891 21.3556C27.0557 19.7957 27.1893 18.2581 27.5236 16.7762C27.8467 15.2943 28.3816 13.8681 29.1392 12.6313Z" fill="#333333"/>
<path d="M21.7297 27.0158C20.1921 25.9127 19.0667 24.5868 18.1419 23.2164C17.2283 21.8347 16.4929 20.3974 15.9358 18.9155C17.05 20.0297 18.2756 20.988 19.5458 21.7902C20.1809 22.1913 20.8383 22.5256 21.4846 22.8041C22.1308 23.0827 22.7882 23.2721 23.4121 23.3835L21.7297 27.0158Z" fill="#333333"/>
<path d="M20.1252 32.7204C19.1225 32.9989 18.2757 32.9766 17.4846 32.8987C16.6935 32.8207 15.9692 32.6535 15.2673 32.453C13.8745 32.0519 12.5709 31.5282 11.3341 30.9154C12.7046 30.8708 14.0751 30.7371 15.3564 30.4585C15.9915 30.3137 16.6155 30.1466 17.1503 29.9126C17.6851 29.6897 18.1642 29.4 18.3871 29.1104L20.1252 32.7204Z" fill="#333333"/>
<path d="M29.05 41.6006C28.7046 43.0268 28.2144 44.3527 27.6127 45.5783C27.0111 46.8039 26.3203 47.9627 25.5069 48.9989C25.6963 47.7064 25.7297 46.414 25.6517 45.1661C25.5737 43.9181 25.3621 42.7036 25.0389 41.6006L29.0389 41.6006L29.05 41.6006Z" fill="#333333"/>
<path d="M211.398 467.139C211.265 470.504 205.616 474.738 205.616 475.674C205.616 476.61 210.05 477.758 210.05 477.758C210.05 477.758 207.933 480.967 206.618 481.858L211.387 482.526C211.387 482.526 209.604 484.543 210.451 485.591C211.287 486.638 215.833 489.156 215.454 489.825C215.086 490.493 212.156 490.493 211.822 491.306C211.487 492.12 214.774 493.858 214.407 494.872C214.039 495.875 209.905 497.256 207.588 497.557C205.27 497.858 203.354 497.201 203.354 497.201L202.596 499.162C202.596 499.162 200.379 498.103 198.886 496.409C198.941 499.084 200.334 502.237 200.334 502.237C200.334 502.237 196.201 500.421 195.142 501.379C194.084 502.337 195.198 505.156 193.482 506.114C191.766 507.072 187.276 503.34 187.276 503.34C187.276 503.34 182.384 507.173 179.51 507.73C179.51 507.73 180.312 505.056 179.109 503.752C177.905 502.448 170.841 504.354 168.323 502.85C168.323 502.85 170.496 499.719 169.883 496.643C169.281 493.568 166.808 490.749 164.735 490.593C165.694 488.877 165.036 485.245 161.404 483.685C164.379 481.111 165.838 479.852 165.838 478.192C165.838 476.532 162.006 475.173 162.106 473.903C162.206 472.643 165.682 472.443 166.496 472.543C164.479 470.783 163.521 465.435 164.223 463.262C165.738 465.078 172.791 465.88 174.251 465.78C176.568 462.649 176.423 460.331 176.423 460.331C177.838 461.234 178.942 462.293 181.114 461.334C183.287 460.376 181.671 456.699 185.326 454.928C185.047 457.201 186.006 459.719 187.265 459.763C188.524 459.819 196.947 454.17 196.947 454.17C196.947 454.17 198.462 458.961 200.925 460.12C203.398 461.279 206.318 460.421 206.318 460.421C206.318 460.421 206.017 465.412 207.577 466.571C209.137 467.73 211.376 467.106 211.376 467.106L211.398 467.139Z" fill="#EFE6D3"/>
<path opacity="0.3" d="M160.011 483.919L160.925 483.128C163.71 480.721 165.103 479.518 165.103 478.203C165.103 477.702 164.089 476.944 163.343 476.398C162.284 475.607 161.293 474.872 161.371 473.858C161.393 473.568 161.515 473.134 161.983 472.755C162.685 472.187 163.933 471.93 164.969 471.83C163.432 469.279 162.897 464.967 163.521 463.039L163.944 461.747L164.813 462.794C165.95 464.153 171.822 465.045 173.872 465.056C175.755 462.382 175.677 460.409 175.677 460.398L175.61 458.939L176.836 459.719C177.003 459.83 177.17 459.93 177.326 460.042C178.496 460.833 179.276 461.345 180.813 460.666C181.393 460.409 181.56 459.808 181.816 458.749C182.15 457.345 182.618 455.418 185.003 454.27L186.24 453.669L186.072 455.039C185.883 456.61 186.351 458.125 186.886 458.749C187.031 458.928 187.187 459.028 187.298 459.028C188.089 458.939 192.624 456.175 196.524 453.557L197.359 453L197.66 453.958C198.05 455.206 199.465 458.616 201.248 459.451C203.432 460.476 206.084 459.719 206.106 459.708L207.131 459.407L207.064 460.476C206.953 462.382 207.176 465.345 208.022 465.98C209.259 466.905 211.153 466.404 211.176 466.393L212.167 466.125L212.134 467.15C212.033 469.613 209.56 472.231 207.755 474.148C207.276 474.649 206.708 475.262 206.451 475.596C206.986 475.975 208.602 476.599 210.228 477.011L211.254 477.279L210.674 478.159C210.507 478.404 209.404 480.064 208.279 481.323L212.88 481.969L211.955 483.017C211.332 483.73 210.786 484.799 211.042 485.1C211.32 485.446 212.323 486.148 213.203 486.76C215.443 488.32 216.669 489.178 216.123 490.17C215.788 490.783 214.93 490.983 213.928 491.206C213.56 491.284 213.014 491.407 212.691 491.54C212.903 491.786 213.281 492.12 213.527 492.343C214.485 493.212 215.488 494.103 215.12 495.117C214.529 496.721 209.504 498.058 207.688 498.292C206.061 498.504 204.624 498.281 203.811 498.092L203.008 500.187L202.273 499.841C202.206 499.808 201.081 499.273 199.877 498.337C200.267 500.22 201.003 501.903 201.014 501.925L201.794 503.696L200.022 502.916C197.961 502.014 195.967 501.646 195.632 501.925C195.398 502.136 195.354 502.827 195.32 503.429C195.254 504.588 195.153 506.025 193.838 506.76C192.045 507.763 188.758 505.468 187.254 504.287C185.928 505.279 182.15 507.975 179.643 508.454L178.418 508.688L178.774 507.496C178.964 506.872 179.287 505.056 178.54 504.242C178.195 503.875 175.9 504.008 174.54 504.086C172.033 504.231 169.437 504.376 167.922 503.474L167.231 503.061L167.688 502.404C167.688 502.404 169.671 499.496 169.125 496.777C168.546 493.858 166.251 491.451 164.669 491.329L163.488 491.24L164.067 490.203C164.446 489.535 164.468 488.465 164.134 487.474C163.666 486.103 162.596 484.989 161.103 484.354L160 483.875L160.011 483.919ZM166.607 478.203C166.607 480.019 165.315 481.301 162.752 483.54C164.111 484.376 165.092 485.591 165.582 487.028C165.939 488.075 165.994 489.145 165.761 490.07C167.911 490.85 170.05 493.579 170.63 496.51C171.098 498.916 170.072 501.29 169.426 502.493C170.719 502.827 172.769 502.716 174.474 502.616C176.914 502.471 178.852 502.37 179.666 503.251C180.557 504.209 180.613 505.624 180.49 506.66C183.176 505.602 186.774 502.794 186.808 502.76L187.287 502.382L187.755 502.772C189.727 504.409 192.357 505.891 193.103 505.468C193.671 505.156 193.749 504.454 193.816 503.351C193.872 502.415 193.939 501.446 194.63 500.822C195.543 499.997 197.482 500.409 199.031 500.922C198.63 499.708 198.162 498.003 198.139 496.421L198.106 494.37L199.465 495.908C200.334 496.9 201.482 497.657 202.217 498.092L202.93 496.253L203.621 496.487C203.621 496.487 205.415 497.078 207.51 496.811C209.872 496.499 213.114 495.284 213.682 494.66C213.526 494.37 212.903 493.802 212.546 493.479C211.643 492.666 210.786 491.897 211.153 491.017C211.476 490.237 212.524 490.003 213.616 489.747C213.85 489.691 214.162 489.624 214.429 489.546C213.916 489.1 212.981 488.443 212.357 488.008C211.254 487.24 210.295 486.571 209.883 486.059C209.148 485.156 209.582 483.964 210.084 483.095L204.602 482.326L206.217 481.234C206.953 480.733 208.089 479.262 208.847 478.203C204.88 477.033 204.88 476.02 204.88 475.674C204.88 475.072 205.404 474.493 206.685 473.134C207.989 471.752 209.861 469.769 210.462 468.042C209.549 468.097 208.234 468.008 207.164 467.206C205.738 466.148 205.56 463.061 205.571 461.379C204.412 461.557 202.44 461.669 200.635 460.822C198.596 459.863 197.192 456.889 196.591 455.351C193.315 457.524 188.468 460.588 187.265 460.543C186.886 460.532 186.318 460.376 185.772 459.73C185.114 458.961 184.68 457.702 184.579 456.376C183.777 457.145 183.543 458.103 183.309 459.106C183.031 460.265 182.741 461.479 181.449 462.047C179.488 462.916 178.184 462.359 177.07 461.657C176.847 462.727 176.29 464.365 174.897 466.248L174.685 466.526L174.34 466.549C173.237 466.627 167.543 466.114 164.78 464.61C164.635 466.95 165.571 470.727 167.02 471.986L168.869 473.602L166.429 473.301C165.504 473.189 163.187 473.524 162.897 473.969C163.008 474.248 163.788 474.827 164.256 475.184C165.359 476.008 166.618 476.944 166.618 478.203L166.607 478.203Z" fill="#333333"/>
<path d="M176.256 481.501C176.256 487.944 181.479 493.167 187.922 493.167C194.365 493.167 199.588 487.944 199.588 481.501C199.588 475.058 194.365 469.835 187.922 469.835C181.479 469.835 176.256 475.058 176.256 481.501Z" fill="#333333"/>
<path d="M183.8 497.49C176.68 495.663 171.421 489.189 171.421 481.501C171.421 472.398 178.808 465 187.922 465C191.655 465 195.109 466.237 197.872 468.343C196.557 468.008 195.176 467.83 193.749 467.83C184.635 467.83 177.248 475.206 177.248 484.331C177.248 489.702 179.811 494.482 183.788 497.49L183.8 497.49Z" fill="#333333"/>
<path d="M201.783 474.738C201.593 475.251 201.237 475.708 200.88 476.131C200.513 476.554 200.112 476.956 199.699 477.323C199.287 477.702 198.852 478.059 198.407 478.404C197.961 478.749 197.515 479.073 197.025 479.407L196.178 477.591C196.657 477.457 197.17 477.279 197.671 477.1C198.173 476.922 198.663 476.722 199.142 476.499C199.632 476.276 200.1 476.042 200.546 475.763C200.992 475.485 201.437 475.173 201.772 474.749L201.783 474.738Z" fill="#333333"/>
<path d="M198.184 483.763C198.362 484.175 198.685 484.621 199.064 485.056C199.443 485.49 199.878 485.914 200.334 486.326C201.248 487.139 202.262 487.897 203.32 488.588C202.073 488.354 200.825 488.053 199.588 487.629C198.964 487.418 198.34 487.184 197.727 486.872C197.103 486.56 196.479 486.203 195.855 485.657L198.195 483.763L198.184 483.763Z" fill="#333333"/>
<path d="M192.379 491.117C192.067 491.351 191.755 491.663 191.499 492.064C191.254 492.476 191.053 492.955 190.908 493.468C190.63 494.515 190.54 495.685 190.652 496.855C190.351 496.342 190.106 495.796 189.894 495.228C189.682 494.66 189.515 494.058 189.404 493.423C189.304 492.788 189.27 492.12 189.337 491.418C189.415 490.716 189.627 489.991 189.983 489.278L192.379 491.106L192.379 491.117Z" fill="#333333"/>
<path d="M175.744 483.039C174.953 483.418 174.307 483.474 173.671 483.54C173.036 483.596 172.446 483.585 171.855 483.563C170.674 483.507 169.538 483.351 168.412 483.15C169.515 482.85 170.585 482.504 171.61 482.081C172.123 481.869 172.613 481.635 173.047 481.379C173.471 481.134 173.894 480.822 174.028 480.565L175.744 483.039Z" fill="#333333"/>
<path d="M175.71 475.485C175.521 475.395 175.309 475.306 175.153 475.217C175.008 475.117 174.852 475.028 174.73 474.927L174.373 474.627L174.05 474.326C173.638 473.925 173.27 473.512 172.925 473.089C172.234 472.253 171.599 471.395 170.997 470.526C171.933 471.028 172.88 471.485 173.827 471.886C174.306 472.086 174.774 472.265 175.242 472.398L175.588 472.487L175.911 472.554C176.011 472.565 176.1 472.565 176.189 472.577C176.279 472.577 176.312 472.543 176.368 472.543L175.722 475.485L175.71 475.485Z" fill="#333333"/>
<path d="M641.195 526.727C637.563 526.939 624.76 530.671 640.025 547.217C636.716 547.006 632.125 547.541 630.844 548.176L635.111 553.724C635.111 553.724 626.666 554.549 623.992 553.903C621.329 553.268 619.735 550.738 619.735 550.738C619.735 550.738 618.777 557.78 615.891 558.85C613.005 559.919 605.329 560.008 601.908 559.385C602.543 556.075 603.613 551.273 601.908 548.822C600.203 546.371 598.276 549.034 594.967 546.371C591.657 543.708 592.616 541.145 591.769 539.864C590.911 538.582 586.432 535.919 586.432 535.919L590.164 531.117C590.164 531.117 585.329 529.947 584.058 527.173C589.095 524.822 590.376 522.794 591.122 521.301C591.869 519.808 589.563 509.992 589.563 509.992C589.563 509.992 595.334 507.485 599.98 507.808C598.22 505.357 595.657 502.415 595.657 502.415C595.657 502.415 601.685 502.359 603.022 503.318C602.12 500.655 600.136 495.63 600.136 495.63L607.869 502.036C607.869 502.036 613.629 495.206 615.557 494.616L615.446 501.691C615.446 501.691 621.451 498.326 632.259 500.655L631.189 509.19C631.189 509.19 635.936 508.866 636.682 509.078C636.259 511.529 632.682 515.696 633.585 518.95C634.487 522.203 639.078 522.315 641.161 526.738L641.195 526.727Z" fill="#EFE6D3"/>
<path opacity="0.3" d="M583 526.749L583.724 526.415C588.849 524.019 589.863 522.003 590.409 520.922C590.766 520.064 589.852 514.671 588.794 510.159L588.638 509.501L589.262 509.234C589.473 509.145 594.019 507.184 598.376 506.972C596.805 504.933 595.089 502.961 595.067 502.939L593.908 501.613L595.668 501.613C596.448 501.591 599.557 501.591 601.719 502.025C600.749 499.362 599.412 495.975 599.401 495.93L598.253 493L607.802 500.9C609.44 498.994 613.551 494.393 615.345 493.847L616.415 493.524L616.315 500.443C618.632 499.552 624.17 498.081 632.46 499.864L633.184 500.019L632.148 508.32C633.83 508.22 636.292 508.12 636.939 508.309L637.641 508.51L637.518 509.223C637.34 510.237 636.738 511.407 636.103 512.666C635.078 514.682 633.908 516.967 634.409 518.738C634.766 520.008 635.858 520.721 637.251 521.624C638.9 522.694 640.76 523.897 641.941 526.404L642.454 527.485L641.262 527.552C639.68 527.641 635.267 528.61 633.93 531.908C632.549 535.318 634.866 540.432 640.638 546.682L642.008 548.175L639.98 548.042C637.239 547.863 633.941 548.209 632.203 548.61L636.66 554.404L635.2 554.549C634.855 554.582 626.588 555.373 623.813 554.716C622.265 554.348 621.05 553.423 620.237 552.61C619.724 554.928 618.543 558.749 616.192 559.63C613.039 560.799 605.095 560.811 601.785 560.198L600.983 560.053L601.251 558.694C601.863 555.596 602.688 551.34 601.273 549.301C600.694 548.465 600.181 548.476 599.167 548.499C598.008 548.532 596.415 548.565 594.487 547.017C592.003 545.011 591.668 542.961 591.457 541.602C591.368 541.056 591.301 540.588 591.122 540.331C590.577 539.507 587.724 537.624 586.042 536.632L585.251 536.164L588.827 531.563C587.2 530.994 584.359 529.724 583.345 527.518L583.011 526.783L583 526.749ZM592.081 520.164C592.081 520.822 592.014 521.334 591.858 521.646C590.978 523.418 589.54 525.345 585.228 527.496C586.487 529.078 589.273 530.047 590.365 530.315L591.579 530.616L587.635 535.696C589.061 536.577 591.713 538.326 592.448 539.418C592.816 539.975 592.927 540.632 593.039 541.334C593.251 542.649 593.485 544.131 595.49 545.747C596.95 546.928 598.053 546.894 599.111 546.872C600.237 546.85 601.507 546.816 602.588 548.365C604.348 550.894 603.535 555.362 602.877 558.727C606.543 559.206 613.139 559.028 615.613 558.103C617.373 557.446 618.588 553.178 618.933 550.638L619.234 548.421L620.426 550.315C620.426 550.315 621.875 552.577 624.181 553.123C625.919 553.535 630.677 553.279 633.563 553.056L629.596 547.897L630.476 547.451C631.702 546.838 635.122 546.382 638.164 546.359C632.805 540.164 630.866 535.106 632.404 531.284C633.741 527.964 637.384 526.515 639.891 526.07C638.922 524.632 637.618 523.785 636.359 522.961C634.81 521.958 633.351 521.011 632.838 519.15C632.17 516.766 633.496 514.181 634.655 511.908C635.033 511.15 635.412 510.426 635.657 509.802C634.61 509.802 632.827 509.88 631.278 509.98L630.298 510.047L631.39 501.279C621.507 499.351 615.936 502.348 615.869 502.382L614.643 503.061L614.744 496.064C613.084 497.401 610.343 500.376 608.515 502.538L607.992 503.15L602.031 498.214C602.632 499.797 603.356 501.702 603.802 503.028L604.616 505.435L602.554 503.953C602.008 503.563 599.735 503.295 597.44 503.217C598.354 504.309 599.624 505.869 600.649 507.295L601.652 508.699L599.936 508.577C596.404 508.331 592.114 509.836 590.521 510.448C591.123 513.078 592.07 517.635 592.07 520.153L592.081 520.164Z" fill="#333333"/>
<path d="M615.368 543.295C616.003 543.239 616.627 544.42 618.81 543.797C620.994 543.184 620.359 541.167 621.061 540.81C621.607 540.532 623.167 541.245 624.493 542.058C624.805 542.248 625.195 541.958 625.083 541.602C624.627 540.042 624.549 538.136 624.549 538.136C626.955 535.618 628.437 532.198 628.437 528.432C628.437 523.719 626.12 519.551 622.565 517.011C622.521 516.966 622.454 516.922 622.376 516.866C621.05 516.053 624.448 510.136 622.766 509.457C620.928 508.699 619.635 514.76 616.76 514.582C616.76 514.582 616.749 514.582 616.738 514.582C615.122 514.315 613.407 514.303 611.635 514.671C605.061 516.042 600.226 521.98 600.348 528.688C600.393 531.106 601.05 533.379 602.175 535.351C602.866 536.454 600.504 537.345 601.507 538.749C602.51 540.153 604.114 538.047 604.66 538.549C605.384 539.239 606.175 539.852 607.022 540.376C607.022 540.376 608.894 544.532 610.9 545.145C612.905 545.758 614.71 543.306 615.356 543.251L615.368 543.295Z" fill="#333333"/>
<path d="M612.125 538.326C607.613 537.301 604.248 533.268 604.248 528.443C604.248 522.839 608.783 518.304 614.387 518.304C616.337 518.304 618.153 518.85 619.702 519.808C618.967 519.63 618.209 519.54 617.418 519.54C611.824 519.54 607.278 524.075 607.278 529.68C607.278 533.334 609.217 536.543 612.114 538.326L612.125 538.326Z" fill="#EFE6D3"/>
<path d="M601.585 515.117C600.46 516.242 596.281 514.359 596.382 513.68C596.705 511.44 602.788 513.802 601.585 515.117Z" fill="#333333"/>
<path d="M600.727 518.137C600.46 517.011 597.15 516.566 596.95 517.022C596.281 518.538 600.961 519.418 600.727 518.137Z" fill="#333333"/>
<path d="M590.131 530.292C590.643 530.337 591.123 530.382 591.613 530.448C592.103 530.504 592.593 530.571 593.072 530.66C594.042 530.816 595.011 531.017 595.936 531.318C594.967 531.273 594.008 531.351 593.05 531.462C592.103 531.574 591.145 531.73 590.22 531.908L590.12 530.292L590.131 530.292Z" fill="#333333"/>
</svg>
