<svg width="351" height="279" viewBox="0 0 351 279" fill="none" xmlns="http://www.w3.org/2000/svg">
<path d="M59.6299 76.9357C66.2731 78.141 73.8515 82.9407 80.0647 86.1262C80.3872 86.2912 80.6416 86.2194 80.8279 85.9109L84.9449 79.271C85.1743 78.8979 85.4681 78.8333 85.8264 79.0773L102.273 90.1188C102.48 90.2578 102.714 90.3497 102.96 90.3879C103.206 90.4261 103.458 90.4097 103.697 90.3399C103.936 90.2701 104.156 90.1486 104.343 89.9839C104.53 89.8192 104.678 89.6154 104.778 89.387C105.788 87.0409 107.286 84.928 109.271 83.0483C111.937 80.4978 113.463 77.3662 116.516 75.0955C116.648 74.9936 116.8 74.92 116.963 74.8793C117.126 74.8385 117.296 74.8315 117.462 74.8587C122.88 75.7304 126.029 70.8338 129.641 67.6053C129.684 67.5661 129.716 67.517 129.736 67.4624C129.755 67.4078 129.76 67.3493 129.752 67.292C129.743 67.2347 129.721 67.1803 129.687 67.1336C129.653 67.087 129.607 67.0494 129.555 67.0242L94.0175 49.6226C93.7094 49.4719 93.6771 49.2782 93.9208 49.0414L96.3824 46.5663C96.4958 46.4519 96.6414 46.3745 96.8004 46.3438C96.9594 46.3131 97.1245 46.3306 97.2746 46.3941L135.779 62.4828C136.123 62.6191 136.453 62.5904 136.768 62.3967C143.938 57.823 144.927 48.2881 147.077 40.529C147.636 38.538 149.012 37.4942 150.27 35.9552C150.463 35.7148 150.565 35.412 150.556 35.1023C150.547 34.7925 150.428 34.4964 150.221 34.268C150.014 34.0396 149.732 33.8941 149.427 33.8581C149.122 33.8221 148.815 33.898 148.56 34.072C147.285 34.9257 145.934 35.2414 144.508 35.019C144.284 34.9771 144.078 34.8683 143.917 34.7069C143.214 34.0038 142.809 33.15 142.702 32.1456C142.652 31.7223 142.448 31.3923 142.089 31.1555C139.832 29.692 140.38 26.1191 137.639 26.4957C137.245 26.5531 137.033 26.3809 137.005 25.9792C136.883 24.4797 137.22 23.0915 138.015 21.8144C138.103 21.6723 138.145 21.5069 138.135 21.3411C138.126 21.1753 138.065 21.0173 137.961 20.8889C136.263 18.7868 135.969 16.4766 137.08 13.9584C137.171 13.7534 137.189 13.5235 137.133 13.3065C137.076 13.0895 136.948 12.8982 136.768 12.7638C134.633 11.1424 133.078 9.06541 132.103 6.53283C132.065 6.43733 132.047 6.33483 132.051 6.23183C132.055 6.12883 132.08 6.02758 132.126 5.93449C132.171 5.8414 132.236 5.75851 132.315 5.69108C132.394 5.62364 132.487 5.57313 132.587 5.54275C135.586 4.62801 140.574 5.51047 143.766 5.73646C143.924 5.74592 144.079 5.69526 144.199 5.59503C144.319 5.4948 144.395 5.35272 144.411 5.19838L144.873 1.46408C144.903 1.21861 144.987 0.982948 145.12 0.774151C145.253 0.565354 145.43 0.388643 145.64 0.256806C145.85 0.124969 146.087 0.0413026 146.333 0.0118626C146.58 -0.0175774 146.83 0.00794516 147.066 0.0865828C153.537 2.29631 159.453 5.05848 164.814 8.37307C168.361 10.5685 166.813 14.0122 164.953 16.9501C164.738 17.2873 164.781 17.5887 165.082 17.8541L167.791 20.297C167.865 20.3648 167.922 20.4493 167.957 20.5434C167.992 20.6375 168.005 20.7386 167.993 20.8384C167.981 20.9382 167.946 21.0339 167.891 21.1175C167.835 21.2011 167.76 21.2703 167.673 21.3194L165.985 22.2879C165.405 22.6179 165.394 22.9695 165.953 23.3426C173.607 28.3575 178.519 32.4147 181.927 40.7011C186.915 52.8331 191.791 65.0189 196.557 77.2585C196.686 77.5886 196.926 77.7644 197.277 77.7859L201.244 78.0872C201.638 78.1231 201.942 78.3024 202.157 78.6253C204.06 81.5094 205.5 84.1783 208.231 86.449C211.456 89.1323 214.107 91.6828 216.185 94.1006C218.131 96.3605 216.282 99.8904 215.551 102.312C215.444 102.678 215.558 102.95 215.895 103.13C221.689 106.229 227.451 110.114 233.879 111.728C241.031 113.536 248.104 115.595 255.098 117.905C262.419 120.316 268.858 124.987 275.329 129.119C276.612 129.937 278.024 130.418 279.564 130.561C291.869 131.723 304.098 133.377 316.252 135.522C326.615 137.341 329.625 146.499 334.139 154.538C334.333 154.868 334.594 155.126 334.924 155.313C339.847 158.075 345.014 160.238 350.425 161.802C351.199 162.025 351.192 162.222 350.403 162.394C341.524 164.367 333.627 165.795 326.712 166.677C322.247 167.251 318.001 166.225 313.973 163.599C302.156 155.901 290.532 147.905 279.102 139.612C278.956 139.506 278.782 139.446 278.602 139.441C278.422 139.435 278.244 139.483 278.092 139.579L273.437 142.507C273.286 142.597 273.159 142.721 273.064 142.869C272.969 143.016 272.909 143.183 272.889 143.357C271.115 157.982 264.074 167.119 254.4 178.483C254.156 178.77 254.16 179.057 254.411 179.344C257.678 183.014 260.753 186.285 265.654 187.835C269.517 189.062 273.305 190.464 277.017 192.043C277.313 192.173 277.548 192.417 277.672 192.721C278.876 195.712 278.747 198.248 277.285 200.329C273.738 205.387 271.413 209.25 270.309 211.919C268.374 216.568 263.483 225.253 263.698 230.053C263.838 233.206 265.622 237.263 263.902 240.244C263.824 240.38 263.719 240.499 263.593 240.594C263.467 240.688 263.324 240.756 263.171 240.793L252.508 243.548C252.065 243.662 251.595 243.594 251.2 243.36C250.805 243.127 250.518 242.745 250.401 242.3C249.036 237.08 249.337 233.098 251.53 227.868C253.379 223.467 262.892 206.27 258.356 202.664C255.41 200.329 245.392 200.695 241.812 201.039C241.715 201.048 241.622 201.078 241.538 201.128C241.454 201.177 241.382 201.245 241.326 201.326C241.271 201.407 241.234 201.499 241.217 201.597C241.201 201.694 241.206 201.794 241.232 201.889L246.037 219.775C246.091 219.967 246.101 220.168 246.068 220.363C246.034 220.559 245.957 220.744 245.843 220.905C242.253 225.974 236.341 228.966 230.439 233.217C222.162 239.2 215.863 246.475 210.09 254.622C209.916 254.866 209.822 255.156 209.822 255.45V260.745C209.822 260.976 209.747 261.202 209.607 261.391L204.834 267.708C204.743 267.834 204.694 267.984 204.694 268.138L204.769 278.48C204.769 278.853 204.583 279.026 204.21 278.997L196.75 278.319C196.327 278.283 196.012 278.082 195.804 277.716C189.14 266.266 182.797 257.054 171.296 249.973C164.215 245.611 157.389 240.879 150.818 235.778C150.495 235.527 150.209 235.566 149.958 235.896L148.12 238.339C147.89 238.648 147.586 238.791 147.206 238.77L114.753 237.231C114.565 237.224 114.384 237.152 114.237 237.026C110.453 233.766 106.627 227.9 108.357 222.756C110.873 215.266 113.739 207.916 116.957 200.706C117.115 200.354 117.025 200.085 116.688 199.899C109.002 195.734 104.219 193.689 100.059 186.694C94.469 177.299 89.492 169.658 81.9458 160.145C75.5463 152.095 69.8419 143.568 64.8327 134.564C60.4576 126.698 55.2441 121.876 46.2361 127.451C41.9721 130.084 37.3355 133.442 32.3262 137.524C32.1807 137.639 32.0007 137.7 31.8167 137.698C31.6327 137.696 31.4558 137.631 31.3158 137.513L29.7464 136.189C29.6222 136.081 29.4605 136.025 29.2946 136.033C29.1287 136.041 28.9711 136.113 28.8542 136.233C25.271 139.942 21.8455 139.694 18.5776 135.49C18.5256 135.423 18.4584 135.37 18.3817 135.335C18.3049 135.3 18.2208 135.284 18.1365 135.288C18.0522 135.292 17.9702 135.317 17.8973 135.36C17.8244 135.402 17.7628 135.462 17.7177 135.533L16.1053 138.116C15.8473 138.518 15.4854 138.754 15.0196 138.826C9.65916 139.651 5.03688 138.259 1.15274 134.651C0.887585 134.407 0.744259 134.102 0.72276 133.736L0.00254594 121.801C-0.018953 121.457 0.0957078 121.173 0.346529 120.951C1.14916 120.219 2.12019 119.796 3.25964 119.681C3.62512 119.645 3.98702 119.466 4.34534 119.143L49.4072 78.7437C49.5539 78.611 49.6555 78.434 49.6974 78.2379C50.7508 72.9431 51.4711 68.6169 55.7816 65.6359C55.8365 65.5999 55.8979 65.5751 55.9623 65.5631C56.0266 65.5512 56.0924 65.5523 56.1558 65.5664C56.2192 65.5805 56.2787 65.6073 56.3308 65.6451C56.3829 65.683 56.4264 65.7311 56.4588 65.7866C58.0856 68.599 58.6589 71.6481 58.1787 74.934C58.0139 76.0676 58.4976 76.7348 59.6299 76.9357ZM131.727 92.0774C135.339 90.0434 137.521 95.2844 139.531 97.2537C139.832 97.5479 140.047 97.4941 140.176 97.0923C142.293 90.8183 141.337 91.1842 148.216 90.4524C148.596 90.4165 148.79 90.2084 148.797 89.8282C148.829 85.4159 148.313 81.9291 151.108 79.5185C151.176 79.4584 151.229 79.3835 151.263 79.2996C151.298 79.2157 151.312 79.1249 151.306 79.0345C151.3 78.944 151.273 78.8561 151.227 78.7777C151.182 78.6993 151.119 78.6324 151.044 78.5822L145.142 74.5897C144.992 74.4896 144.813 74.4436 144.635 74.4593C144.457 74.4749 144.291 74.5514 144.164 74.6757C140.351 78.4423 135.862 80.9677 130.695 82.252C130.544 82.2886 130.403 82.3588 130.282 82.4574C130.161 82.5561 130.063 82.6808 129.996 82.8223L128.362 86.2661C128.288 86.4213 128.181 86.5585 128.047 86.6683C127.913 86.7779 127.757 86.8574 127.588 86.901C125.352 87.4821 123.131 87.457 120.923 86.8257C120.551 86.7181 120.196 86.7611 119.859 86.9548L116.796 88.7305C116.654 88.816 116.542 88.9424 116.475 89.0926C116.407 89.2427 116.388 89.4094 116.419 89.5699C117.007 92.6908 117 95.8045 116.398 98.911C116.326 99.2698 116.412 99.589 116.656 99.8688C117.717 101.081 118.297 101.931 118.397 102.419C119.809 108.934 123.632 113.403 129.867 115.828C130.132 115.936 130.265 115.846 130.265 115.559L130.114 106.638C130.107 106.207 130.258 105.849 130.566 105.562L135.51 100.967C135.776 100.723 135.776 100.475 135.51 100.224C133.597 98.3586 132.142 96.1883 131.146 93.7132C131.028 93.418 131.022 93.0895 131.129 92.7886C131.235 92.4878 131.448 92.2351 131.727 92.0774ZM176.574 240.987C184.023 246.228 191.214 251.361 196.621 258.83C196.865 259.167 197.037 259.134 197.137 258.733C199.201 250.371 200.04 243.602 207.618 237.618C213.681 232.819 221.829 227.384 226.806 221.583C227.028 221.332 227.164 221.042 227.214 220.712C229.192 208.723 223.054 199.07 218.905 188.696C218.802 188.455 218.609 188.265 218.367 188.168C213.315 186.246 209.209 183.114 206.049 178.773C205.989 178.692 205.914 178.624 205.826 178.574C205.739 178.523 205.643 178.491 205.542 178.478C205.442 178.466 205.339 178.475 205.242 178.503C205.144 178.532 205.053 178.58 204.974 178.644C194.267 187.544 184.603 191.892 170.425 192.139C169.773 192.147 169.375 192.466 169.232 193.097C167.931 198.79 166.587 198.607 160.965 199.759C158.178 200.325 155.379 200.853 152.57 201.341C152.219 201.405 152.043 201.613 152.043 201.965L151.925 212.888C151.919 213.233 152.05 213.569 152.29 213.824C153.946 215.56 155.419 216.852 156.708 217.698C159.568 219.571 164.878 217.935 168.759 219.173C169.088 219.278 169.384 219.465 169.621 219.716C169.858 219.967 170.027 220.275 170.112 220.61C170.196 220.945 170.195 221.296 170.107 221.63C170.019 221.964 169.847 222.27 169.608 222.52C167.386 224.83 164.763 226.415 161.739 227.276C161.62 227.311 161.512 227.377 161.426 227.468C161.34 227.558 161.28 227.669 161.25 227.79C161.221 227.911 161.224 228.037 161.259 228.157C161.293 228.276 161.359 228.385 161.449 228.471C166.2 233.001 170.694 236.854 176.574 240.987ZM143.68 225.845L129.867 214.448C129.616 214.24 129.358 214.233 129.093 214.427C126.141 216.637 123.754 219.011 121.934 221.551C120.569 223.445 120.923 227.535 123.837 227.481C130.544 227.366 137.08 227.068 143.444 226.588C144.132 226.53 144.21 226.283 143.68 225.845Z" fill="#681701"/>
</svg>
