<svg width="156" height="202" viewBox="0 0 156 202" fill="none" xmlns="http://www.w3.org/2000/svg">
<path d="M49.4381 7.23848L50.3364 2.15531C50.3787 1.90161 50.5239 1.74153 50.7719 1.67508C58.766 -0.445169 65.4806 -1.55966 71.8141 4.66518C73.4837 6.31427 72.5582 8.05396 72.6308 9.92957C72.6429 10.2558 72.7759 10.5155 73.03 10.7088C74.9537 12.1948 81.3598 17.0696 82.2036 20.1321C82.2282 20.2207 82.2313 20.3139 82.2128 20.4039C82.1942 20.4939 82.1545 20.5782 82.0969 20.6499C82.0393 20.7216 81.9655 20.7786 81.8815 20.8162C81.7975 20.8537 81.7057 20.8709 81.6138 20.8661L73.9374 20.4493C73.8316 20.442 73.7263 20.4699 73.638 20.5286C73.5496 20.5872 73.4832 20.6734 73.4491 20.7737C73.4149 20.874 73.4149 20.9827 73.4491 21.083C73.4832 21.1833 73.5496 21.2695 73.638 21.3282C75.241 22.4215 76.4902 23.823 77.3854 25.5324C77.4531 25.6643 77.55 25.7782 77.6683 25.8648C77.7865 25.9515 77.9228 26.0083 78.066 26.0308C86.6317 27.4534 96.0866 31.1502 101.458 38.2811C110.393 50.1388 117.186 59.5018 121.838 66.3699C124.433 70.2118 120.123 77.4333 117.619 80.3781C117.421 80.6049 117.32 80.9008 117.337 81.2027C117.658 87.805 114.745 92.2419 108.599 94.5131C108.188 94.6641 108.14 94.8937 108.454 95.2017L112.156 98.8533C112.254 98.9481 112.37 99.0226 112.498 99.0723C112.626 99.1221 112.762 99.1462 112.9 99.1432L153.605 98.4637C153.938 98.4637 154.156 98.6207 154.259 98.9348C155.499 102.879 156.077 106.918 155.992 111.049C155.986 111.345 155.838 111.475 155.547 111.439L118.508 107.235C118.133 107.192 117.964 107.355 118 107.724C118.499 113.523 108.109 108.648 105.995 106.836C105.898 106.754 105.774 106.71 105.647 106.713C105.52 106.717 105.398 106.767 105.306 106.854C102.865 109.119 103.836 110.66 103.926 113.432C104.114 118.99 104.011 124.532 103.618 130.059C103.291 134.644 100.986 138.984 99.2987 143.234C99.2445 143.368 99.2197 143.513 99.226 143.659C99.2323 143.806 99.2694 143.951 99.335 144.085C100.605 146.731 102.683 148.951 103.527 151.533C105.995 159.099 105.823 167.39 105.115 175.101C104.797 178.535 105.369 180.854 106.676 183.79C107.792 186.309 111.022 193.078 110.668 195.289C110.042 199.239 108.853 202.854 103.736 201.821C99.1535 200.897 93.1194 199.801 95.1157 193.259C95.2004 192.981 95.1973 192.7 95.1066 192.416C94.1538 189.471 94.4714 185.059 92.6294 182.83C92.4359 182.594 92.327 182.325 92.3028 182.023C91.8037 176.505 91.6858 171.341 89.8801 165.967C88.8275 162.838 87.8596 159.679 86.9765 156.49C86.8936 156.194 86.7264 155.93 86.4955 155.729C84.6203 154.134 83.6766 152.053 83.6645 149.486C83.6588 149.13 83.5194 148.79 83.2743 148.534C79.4633 144.575 83.7825 139.229 83.6645 134.58C83.5556 130.437 83.5768 126.299 83.728 122.167C83.7455 121.785 83.6372 121.406 83.4195 121.089C81.3446 118.074 79.9896 114.776 79.3545 111.194C79.2819 110.796 79.0792 110.714 78.7465 110.95C73.8769 114.35 68.6292 116.999 63.0034 118.896C59.6008 120.038 55.2726 125.601 52.5867 128.202C52.3689 128.413 52.257 128.67 52.251 128.972C52.2147 132.071 50.7357 135.477 51.3617 138.332C52.4506 143.342 53.9659 146.958 52.3417 152.313C51.0532 156.553 48.9027 161.065 49.0479 165.487C49.1568 168.921 51.6975 178.861 47.8502 180.13C47.5779 180.217 47.3503 180.407 47.215 180.659C47.0796 180.91 47.0471 181.205 47.1243 181.48C48.2766 185.494 49.8373 193.386 46.0808 196.421C45.8328 196.62 45.5485 196.729 45.2278 196.747L41.7344 196.929C41.3896 196.941 41.0872 197.058 40.827 197.282C35.7185 201.568 31.8349 201.386 25.4197 201.269C24.228 201.245 23.5717 200.435 23.4507 198.84C23.0696 193.757 28.2235 194.582 30.129 190.749C32.4156 186.164 34.2032 181.67 33.9491 176.333C33.441 165.81 33.3442 155.351 33.6587 144.955C33.6612 144.87 33.6342 144.787 33.5822 144.72C33.5302 144.654 33.4564 144.607 33.3728 144.588C33.2892 144.569 33.201 144.579 33.1226 144.616C33.0443 144.653 32.9805 144.715 32.9419 144.792L30.0837 150.99C30.0277 151.11 29.9342 151.209 29.8171 151.273C29.7 151.336 29.5657 151.359 29.434 151.34C29.3024 151.321 29.1806 151.259 29.0867 151.165C28.9928 151.071 28.932 150.949 28.9131 150.818C28.3445 147.054 29.2186 144.01 31.5355 141.684C32.6425 140.573 32.588 139.331 31.3721 137.96C31.2672 137.839 31.1961 137.692 31.1658 137.535C31.1356 137.377 31.1473 137.215 31.1997 137.063L33.2867 131.282C33.4016 130.962 33.3926 130.648 33.2595 130.34L31.7623 126.915C31.6111 126.559 31.602 126.202 31.7351 125.846L33.9672 119.711C33.983 119.67 33.9873 119.626 33.9797 119.582C33.9721 119.539 33.9528 119.498 33.924 119.465C33.8952 119.431 33.8578 119.406 33.8159 119.392C33.774 119.378 33.7291 119.376 33.686 119.385C28.405 120.473 23.0938 121.596 17.7523 122.756C17.1111 122.895 16.6 122.43 16.2189 121.361C16.1632 121.2 16.1418 121.03 16.1558 120.86C16.1698 120.691 16.219 120.527 16.3003 120.378C16.3815 120.23 16.493 120.1 16.6275 119.998C16.7619 119.895 16.9164 119.822 17.0809 119.784L37.3064 114.973C37.4628 114.936 37.6095 114.866 37.7364 114.767C37.8632 114.669 37.9673 114.544 38.0414 114.402C41.6225 107.685 46.4468 102.115 52.5141 97.6935C53.612 96.8871 55.9077 95.6548 57.4684 94.4588C57.7285 94.2534 57.8888 93.9876 57.9493 93.6614L60.5263 79.8073C60.6049 79.3784 60.8136 79.3029 61.1524 79.5807L62.4318 80.6318C62.6798 80.8432 62.9006 80.816 63.0942 80.5503L64.0016 79.2908C64.2072 79.0069 64.174 78.7562 63.9018 78.5387L60.5081 75.7661C60.3812 75.6611 60.2304 75.5892 60.0688 75.5566C59.9072 75.524 59.7397 75.5317 59.5812 75.5791C59.4227 75.6265 59.2779 75.7122 59.1595 75.8285C59.0411 75.9448 58.9527 76.0883 58.9021 76.2463L57.0692 82C57.0097 82.1779 56.9029 82.3347 56.7607 82.4531C52.6684 85.7784 47.0698 90.8888 41.7707 91.7133C41.6283 91.7355 41.4936 91.7916 41.3782 91.8769C41.2628 91.9621 41.1702 92.0739 41.1083 92.2026L40.1374 94.2413C40.0652 94.3964 39.9537 94.5303 39.8139 94.6303C39.6741 94.7303 39.5105 94.7929 39.3389 94.8121L30.4738 95.8088C30.1532 95.8451 29.8538 95.7847 29.5755 95.6276C27.1679 94.2685 25.8583 92.1875 25.6466 89.3846C25.6367 89.255 25.5842 89.1323 25.4972 89.0356C25.4102 88.9389 25.2936 88.8737 25.1656 88.8501L22.5796 88.3426C22.2288 88.2702 22.0533 88.0557 22.0533 87.6993V85.8871C22.0533 85.6274 21.9233 85.4703 21.6632 85.416L19.5036 84.9539C19.1951 84.8874 18.9924 84.7032 18.8956 84.4011L17.8975 81.3929C17.8068 81.1151 17.6162 80.958 17.3259 80.9218L0.820605 78.7924C0.63625 78.7667 0.463498 78.6875 0.323689 78.5648C0.18388 78.442 0.0831394 78.2811 0.033914 78.1018C-0.0153114 77.9226 -0.0108654 77.7328 0.0467021 77.556C0.104269 77.3792 0.212437 77.2232 0.357841 77.1071C2.68074 75.2949 5.39381 76.6631 7.42634 76.7809C12.8343 77.1011 18.2333 77.4394 23.6231 77.7957C26.2091 77.9679 27.6428 79.0824 29.9385 80.07C30.1381 80.152 30.3073 80.3017 30.4194 80.4959C31.9438 83.1779 34.2334 84.6186 37.2883 84.8179C37.6391 84.8421 37.8569 84.6851 37.9416 84.3468C38.1896 83.3561 38.3862 82.3534 38.5314 81.3386C38.6524 80.4808 38.9215 79.9311 39.3389 79.6895C39.8229 79.4116 40.3855 79.475 41.0267 79.8798C41.087 79.9198 41.1574 79.9414 41.2297 79.942C41.302 79.9427 41.3733 79.9223 41.4351 79.8834C41.4969 79.8445 41.5467 79.7885 41.5789 79.7221C41.611 79.6557 41.624 79.5815 41.6165 79.5083C41.1809 76.1316 42.1216 73.22 44.4384 70.7735C44.6441 70.5561 44.7258 70.2963 44.6834 69.9943C44.1813 66.3639 44.8951 63.256 46.8248 60.6706C47.5023 59.7645 47.7594 58.943 47.5961 58.2061C45.6362 49.4623 46.0717 39.1872 55.0548 34.394C56.7123 33.506 56.6034 32.9896 54.7281 32.8446L50.5542 32.5184C50.2184 32.4922 49.8915 32.3973 49.5938 32.2397C49.296 32.0821 49.0336 31.865 48.8228 31.6019C48.612 31.3387 48.4572 31.0351 48.368 30.7097C48.2787 30.3842 48.2569 30.0438 48.3039 29.7095C48.6971 26.9671 47.9167 24.6324 45.9628 22.7054C45.6967 22.4517 45.6634 22.1709 45.863 21.8628C47.1817 19.7909 47.2029 17.6736 45.9265 15.5111C45.8842 15.4386 45.863 15.1638 45.863 14.6865C45.863 14.5899 45.8751 14.4993 45.8993 14.4147C46.0505 13.8469 45.8358 13.5932 45.2551 13.6536C42.6358 13.9375 40.08 13.8107 37.5877 13.273C37.3012 13.2129 37.0408 13.0644 36.8434 12.8486C36.6459 12.6327 36.5214 12.3604 36.4873 12.07C36.4532 11.7796 36.5113 11.4859 36.6534 11.2303C36.7955 10.9747 37.0144 10.7701 37.2792 10.6454C40.8966 8.91777 44.6955 7.9996 48.6759 7.89086C48.8585 7.8856 49.0338 7.81796 49.1725 7.69924C49.3112 7.58051 49.405 7.41788 49.4381 7.23848ZM104.407 66.7324L101.513 65.2102C101.18 65.035 100.999 65.1346 100.968 65.5092C100.723 68.7077 100.188 71.9062 102.774 74.3435C102.883 74.4447 102.95 74.5841 102.96 74.7337C102.97 74.8832 102.923 75.032 102.828 75.15C101.401 76.9501 101.455 78.6233 102.992 80.1697C103.294 80.4778 103.53 80.4325 103.699 80.0338C105.442 76.0893 105.883 71.9333 105.024 67.566C104.952 67.1915 104.746 66.9136 104.407 66.7324Z" fill="#B3590A"/>
</svg>
