<svg width="285" height="403" viewBox="0 0 285 403" fill="none" xmlns="http://www.w3.org/2000/svg">
<path d="M104.343 394.907C104.086 397.335 102.683 398.928 100.137 399.41C92.4 400.858 84.5988 402.026 76.7331 402.916C71.2852 403.528 68.5129 400.761 69.3188 395.405C69.394 394.869 69.6143 394.408 69.9797 394.022C74.4444 389.197 80.6982 382.378 80.537 375.381C80.3758 368.304 79.0864 361.49 76.6687 354.939C74.7023 349.583 75.4759 345.401 75.0569 339.965C74.7506 336.04 72.0267 334.464 71.3497 330.684C66.7184 304.629 61.5767 278.032 55.9246 250.893C55.8647 250.586 55.7067 250.306 55.4742 250.096C55.2417 249.886 54.9473 249.757 54.6351 249.728C54.3228 249.699 54.0096 249.772 53.7423 249.935C53.475 250.099 53.268 250.345 53.1523 250.636L51.0247 255.847C50.8117 256.366 50.4322 256.801 49.9455 257.083C49.4587 257.365 48.8921 257.478 48.3342 257.404C47.7763 257.331 47.2585 257.075 46.8617 256.677C46.4649 256.279 46.2115 255.76 46.1409 255.203C45.2168 247.858 44.5506 240.406 44.1423 232.847C43.8199 226.735 40.145 221.814 40.2095 216.249C40.2739 209.895 39.7098 197.334 45.7541 193.474C46.064 193.276 46.3125 192.995 46.4719 192.663C46.6313 192.331 46.6953 191.96 46.6567 191.592L45.7058 182.633C45.6724 182.351 45.7273 182.065 45.8628 181.814C45.9984 181.564 46.2081 181.361 46.4633 181.234L48.7198 180.092C48.917 179.992 49.0898 179.849 49.2263 179.674C49.3627 179.499 49.4594 179.296 49.5096 179.079C51.7178 170.024 53.2168 162.416 47.5916 155.629C47.2692 155.243 46.9039 155.189 46.4955 155.468L39.3391 160.261C38.8663 160.583 38.6299 161.028 38.6299 161.596V169.268C38.63 169.839 38.4304 170.391 38.0658 170.828C30.587 179.964 27.863 191.029 22.3184 204.411C22.1034 204.936 22.1303 205.446 22.3989 205.939C24.9886 210.85 26.4392 216.098 26.7508 221.685C26.7708 222.076 26.6318 222.464 26.364 222.762L17.9987 232.171C17.773 232.429 17.7032 232.718 17.7892 233.04L19.4977 238.927C19.7663 239.859 19.4117 240.283 18.4339 240.197L14.8395 239.876C14.399 239.833 14.1303 240.031 14.0336 240.471L6.02293 278.525C5.97009 278.787 5.82655 279.023 5.61739 279.19C5.40822 279.358 5.14672 279.447 4.87854 279.442L1.39702 279.393C0.698572 279.383 0.290246 279.034 0.172046 278.348C-0.488797 274.44 0.945717 270.563 1.25196 267.749C3.16465 250.11 4.33052 232.429 4.74959 214.704C4.99137 204.025 8.8436 194.085 12.1317 184.129C12.9698 181.636 12.4379 179.336 13.5179 177.052C15.4413 172.935 17.2841 168.791 19.0464 164.62C19.2398 164.169 19.2667 163.708 19.127 163.236C16.7952 155.473 15.4789 147.523 15.178 139.384C15.1675 139.046 15.2312 138.709 15.3647 138.395C15.4982 138.082 15.6984 137.799 15.9517 137.567C17.4238 136.237 19.2237 135.857 21.3513 136.425C21.6037 136.489 21.8696 136.472 22.1102 136.377C22.3507 136.281 22.5535 136.112 22.6891 135.894L27.0732 128.833C27.3956 128.308 27.3472 127.82 26.9281 127.37C23.4305 123.558 21.8026 119.698 23.1726 114.358C26.2834 102.183 32.1343 90.924 38.2108 78.7164C41.4022 72.299 49.6708 68.8571 56.0214 66.6214C56.5801 66.4177 56.9777 66.0478 57.2141 65.5117L60.7117 57.6628C60.7638 57.5464 60.8392 57.4418 60.9331 57.3559C61.0271 57.2699 61.1375 57.2044 61.2573 57.1635C61.3771 57.1227 61.5038 57.1073 61.6291 57.1185C61.7544 57.1297 61.8756 57.1672 61.9851 57.2285L64.5801 58.6922C65.2785 59.0782 65.6278 58.8744 65.6278 58.081V51.8727C65.6277 51.6645 65.6891 51.4615 65.8039 51.2896C65.9188 51.1177 66.0819 50.9846 66.2725 50.9076L68.7386 49.9265C69.1361 49.7657 69.3833 49.4762 69.48 49.058C70.0602 46.431 69.1845 45.1818 66.8527 45.3105C61.3403 45.6214 55.6184 45.466 49.6869 44.8441C49.2081 44.7977 48.7568 44.5988 48.4 44.2767C48.0433 43.9547 47.7998 43.5265 47.7058 43.0557C47.6118 42.5848 47.6722 42.0963 47.8781 41.6624C48.0839 41.2284 48.4243 40.8721 48.8488 40.6462L66.7077 30.996C66.8896 30.898 67.0359 30.7443 67.1256 30.5566C67.2153 30.3689 67.2439 30.1568 67.2073 29.9505C65.3538 20.445 62.2913 16.601 72.2684 10.9234C79.6183 6.74167 87.2583 3.12819 95.1884 0.0830035C95.6719 -0.0992789 96.0588 0.018669 96.3489 0.436846L109.469 19.1262C109.641 19.3731 109.864 19.58 110.123 19.7326C110.382 19.8853 110.67 19.9802 110.968 20.0108L134.42 22.2303C134.611 22.2493 134.791 22.33 134.933 22.4601C135.074 22.5902 135.17 22.7627 135.204 22.9516C135.239 23.1405 135.211 23.3355 135.125 23.5071C135.038 23.6787 134.899 23.8177 134.726 23.903L111.113 35.5155C110.554 35.7836 110.442 36.1856 110.775 36.7218L114.111 42.1098C114.269 42.3603 114.335 42.6581 114.297 42.9517C114.259 43.2454 114.119 43.5165 113.902 43.7182L112.177 45.2944C111.822 45.6268 111.559 46.0182 111.387 46.4685C109.614 51.358 112.225 52.8377 116.513 53.9153C122.895 55.5237 129.069 59.0138 135.677 57.8719C143.349 56.553 150.699 53.9743 157.727 50.1356C157.934 50.0232 158.166 49.9636 158.402 49.9621C158.638 49.9606 158.871 50.0172 159.08 50.127C159.289 50.2368 159.467 50.3963 159.6 50.5914C159.732 50.7865 159.814 51.0111 159.838 51.2454L160.048 53.3524C160.123 54.0922 160.531 54.3817 161.273 54.2209C164.851 53.4274 168.107 54.1137 171.04 56.2796C171.513 56.6334 172.045 56.7996 172.636 56.7782C182.21 56.478 191.768 56.1241 201.31 55.7167C208.95 55.395 218.411 52.0817 224.021 46.8706C229.323 41.9651 235.126 38.1854 242.798 38.2819C256.413 38.4535 270.032 38.9092 283.658 39.649C284.077 39.6705 284.356 39.8742 284.496 40.2602C285.646 43.4877 284.829 45.1979 282.046 45.3909C273.106 46.0021 264.219 46.8545 255.386 47.9482C254.806 48.0233 254.398 48.3235 254.161 48.8489C253.28 50.7361 251.749 51.4384 249.568 50.9559C248.955 50.8165 248.477 51.0095 248.133 51.5349C245.957 54.8803 244.475 58.6278 239.413 57.4537C238.747 57.3036 238.264 57.5288 237.963 58.1292L235.416 63.1956C235.157 63.723 234.709 64.1357 234.159 64.3536C232.042 65.19 230.624 66.6858 229.904 68.841C229.826 69.0797 229.684 69.2926 229.493 69.4569C229.303 69.6213 229.072 69.7308 228.824 69.7739L215.333 72.1543C214.688 72.2722 214.119 72.1167 213.624 71.6878L210.9 69.3557C210.428 68.959 209.896 68.8464 209.305 69.0179L170.234 80.4535C169.729 80.6036 169.369 80.9145 169.154 81.3863C164.271 92.2107 153.246 90.0072 143.656 89.2191C143.086 89.1762 142.56 89.3049 142.076 89.6051L136.66 92.9666C136.379 93.1417 136.164 93.4049 136.05 93.7139C135.936 94.023 135.929 94.3602 136.032 94.6715C137.434 99.1749 138.175 103.099 142.044 106.268C146.826 110.182 151.768 113.881 156.872 117.366C157.313 117.666 157.802 117.816 158.339 117.816C173.442 117.88 184.08 115.548 200.053 110.048C216.483 104.386 233.374 100.564 250.728 98.5798C251.33 98.5048 251.593 98.7729 251.518 99.384L249.374 117.028C249.299 117.682 249.036 118.25 248.585 118.733C244.184 123.381 238.833 127.145 238.446 134.286C237.35 155.355 231 162.175 211.481 168.914C210.7 169.183 210.027 169.698 209.562 170.382C209.097 171.066 208.866 171.883 208.902 172.71L209.724 191.592C209.729 191.785 209.681 191.976 209.584 192.144C209.488 192.311 209.346 192.449 209.176 192.541C197.109 199.2 185.101 205.794 173.152 212.324C163.191 217.76 152.478 219.401 141.012 217.246C140.829 217.21 140.639 217.227 140.464 217.294C140.289 217.361 140.137 217.476 140.025 217.625C139.912 217.774 139.844 217.952 139.827 218.138C139.811 218.324 139.847 218.511 139.932 218.677C143.156 225.143 137.595 229.502 140.642 236.015C149.99 256.04 148.83 275.903 149.539 295.976C149.711 300.844 150.436 305.545 151.715 310.081C156.797 328.116 162.589 345.921 169.09 363.495C169.67 365.071 169.445 367.832 168.413 371.778C168.339 372.066 168.344 372.368 168.426 372.654C168.508 372.939 168.665 373.198 168.88 373.403L188.883 392.269C189.324 392.676 189.485 393.18 189.367 393.781L188.432 398.204C188.281 398.933 187.841 399.26 187.11 399.185L145.074 394.826C144.397 394.762 144.032 394.392 143.978 393.717L143.14 383.246C143.097 382.688 142.903 382.19 142.56 381.75L140.625 379.273C140.487 379.1 140.385 378.901 140.324 378.688C140.263 378.476 140.245 378.254 140.271 378.035C141.152 370.154 140.851 363.694 139.368 358.654C135.79 346.462 128.569 326.856 121.638 311.255C115.384 297.214 113.015 287.113 109.098 269.872C105.633 254.592 100.33 243.076 92.9157 230.193C92.6041 229.646 92.3409 229.668 92.126 230.257C89.4611 237.602 88.8056 245.151 90.1596 252.903C93.0447 269.389 95.8331 285.779 99.3791 302.152C101.26 310.837 101.899 319.64 101.297 328.561C100.556 339.643 107.954 357.512 111.419 368.369C111.849 369.72 111.887 370.77 111.532 371.521C111.156 372.293 110.458 372.835 109.437 373.145C109.335 373.174 109.24 373.224 109.158 373.291C109.076 373.358 109.008 373.441 108.958 373.535C108.908 373.63 108.878 373.734 108.869 373.841C108.86 373.948 108.872 374.056 108.905 374.159L115.304 393.427C115.497 394.028 115.336 394.51 114.82 394.875C111.586 397.116 108.475 396.971 105.488 394.44C105.391 394.357 105.273 394.301 105.147 394.281C105.02 394.26 104.891 394.275 104.772 394.323C104.654 394.371 104.551 394.451 104.475 394.554C104.4 394.657 104.354 394.779 104.343 394.907Z" fill="#A14901"/>
</svg>
