<svg width="43" height="44" viewBox="0 0 43 44" fill="none" xmlns="http://www.w3.org/2000/svg">
<circle cx="21.551" cy="22.2041" r="20.898" fill="#D9D9D9"/>
<path d="M9.27518 7.26864C11.3032 9.44533 13.2653 11.6864 15.254 13.8992C15.6198 14.3065 15.9804 14.7181 16.3361 15.1341C16.3659 15.1692 16.3989 15.2572 16.402 15.3153C16.4764 16.6512 15.0305 17.1716 13.9521 17.2501C13.0857 17.3129 12.5345 17.9464 12.4407 18.8002C12.3942 19.2274 12.3716 19.8561 12.2863 20.311C12.1837 20.8596 12.0202 21.3489 11.7958 21.7789C11.1718 22.974 10.5829 24.2932 11.4189 25.5611C11.867 26.2406 12.4486 26.6322 13.1066 27.0782C13.5495 27.3787 13.9102 27.7488 13.9725 28.3079C14.1746 30.1296 11.2823 30.9903 9.97666 31.2798C9.96875 31.2815 9.96049 31.2806 9.95325 31.277C9.94602 31.2735 9.94024 31.2676 9.93687 31.2604C9.75679 30.8748 9.55228 30.502 9.32334 30.1422C9.01482 29.6571 8.8426 29.38 8.80665 29.3109C8.14181 28.0372 7.89943 26.4558 8.68258 25.1868C8.82549 24.9549 9.05531 24.645 9.26471 24.3853C10.5253 22.8227 11.6932 21.3229 11.833 19.1897C11.8749 18.5494 12.1251 17.7291 12.5873 17.1978C12.7761 16.9807 12.8824 16.851 12.9061 16.8088C13.1674 16.3518 13.0464 15.9901 12.7894 15.5226C11.8468 13.8052 10.8978 12.0914 9.94263 10.3813C9.83514 10.189 9.71334 10.0074 9.57723 9.83638C9.17973 9.33767 8.80263 8.87089 8.44596 8.43604C8.32451 8.28841 8.30985 8.29836 8.40199 8.46588C9.73376 10.883 11.0809 13.3171 12.4434 15.7681C12.6925 16.2162 12.7203 16.4617 12.3518 16.8355C11.2257 17.9767 11.5869 19.5325 11.0446 20.8947C10.687 21.792 10.0829 22.7321 9.48771 23.4389C8.9356 24.0943 8.55485 24.5944 8.34545 24.9392C8.14024 25.2763 7.98895 25.6365 7.89158 26.0197C7.823 26.2893 7.83871 26.561 7.80311 26.8264C7.77275 27.0541 7.81044 27.2379 7.81672 27.4394C7.85808 28.7738 8.59516 29.7763 9.30083 30.9379C9.45857 31.1969 9.55751 31.4762 9.59765 31.776C9.5987 31.7834 9.60203 31.7903 9.60718 31.7957C9.61233 31.8011 9.61906 31.8049 9.62644 31.8064C10.1245 31.9062 10.6261 31.9771 11.1315 32.0189C12.0151 32.0922 12.8168 31.8809 13.5364 31.385C13.55 31.3756 13.5649 31.3693 13.5809 31.3661C13.6396 31.3546 13.6825 31.3442 13.7411 31.3499C15.1708 31.4892 16.3528 31.9006 17.3344 32.9953C17.9558 33.6884 18.5374 34.3631 19.5639 34.3579C20.6109 34.3522 21.4302 33.4921 21.1789 32.422C21.114 32.1456 20.9667 31.9292 20.7371 31.7729C20.7347 31.771 20.7317 31.77 20.7286 31.7703C20.7256 31.7706 20.7228 31.7721 20.7209 31.7745C20.7189 31.7768 20.718 31.7799 20.7183 31.7829C20.7186 31.786 20.7201 31.7888 20.7224 31.7907C21.3271 32.3885 21.0114 33.4434 20.2335 33.7208C19.4022 34.0171 18.4913 33.3821 18.3384 32.5435C18.1877 31.7174 18.6635 31.0609 19.4634 30.8772C20.7135 30.5898 21.7516 31.4824 22.3505 32.4812C22.4419 32.6337 22.5625 32.8897 22.7122 33.2492C23.0755 34.1208 23.4231 34.9767 24.0827 35.5761C25.2412 36.6283 26.6102 36.3367 27.7488 35.4646C27.8584 35.3808 27.972 35.3096 28.0896 35.251C28.8287 34.8839 29.4782 34.3958 30.038 33.7868C30.0945 33.725 30.1612 33.6765 30.238 33.6413C32.8125 32.4529 34.0009 29.3135 33.0073 26.7049C32.0676 24.2403 29.2852 23.5389 27.3509 22.1689C27.3348 22.1576 27.3222 22.142 27.3143 22.1238C27.1475 21.7298 26.9311 21.366 26.6651 21.0324C26.6362 20.9961 26.6428 20.9873 26.685 21.0062C27.7732 21.4969 28.882 21.9689 30.0113 22.4222C30.3537 22.5597 30.8178 22.7855 31.4038 23.0996C32.6602 23.7739 33.6616 24.7015 33.6595 26.2301C33.6596 26.2338 33.6608 26.2373 33.6629 26.2402C33.6651 26.243 33.6682 26.2451 33.6717 26.2461C33.6751 26.2471 33.6788 26.247 33.6822 26.2457C33.6856 26.2444 33.6885 26.2421 33.6904 26.239C35.029 24.1608 34.6118 21.2014 32.7722 19.5629C31.0065 17.9898 28.6345 17.9066 26.3751 17.514C25.8422 17.4215 25.3246 17.2758 24.8224 17.0768C24.5439 16.9664 23.6163 16.4764 23.5776 16.1529C23.5301 15.7585 23.4027 15.39 23.1954 15.0472C23.1936 15.0451 23.1927 15.0423 23.193 15.0395C23.1932 15.0367 23.1946 15.0341 23.1967 15.0323C23.1989 15.0305 23.2017 15.0296 23.2045 15.0299C23.2073 15.0301 23.2098 15.0315 23.2116 15.0336C24.4879 16.1518 26.1375 16.4984 27.7854 16.6036C28.9198 16.6758 29.6229 16.6915 30.3406 16.8256C31.3408 17.013 32.0693 17.5529 32.5262 18.4452C32.5287 18.4501 32.533 18.454 32.5381 18.4561C32.5432 18.4583 32.5488 18.4586 32.5541 18.457C32.5593 18.4555 32.5638 18.4521 32.5668 18.4476C32.5697 18.443 32.5709 18.4376 32.5702 18.4322C32.354 16.5026 30.9897 14.675 29.515 13.4857C28.221 12.4415 26.7421 11.8039 25.0784 11.5728C23.8482 11.4022 22.7693 11.4608 21.4569 11.6964C21.4485 11.698 21.4398 11.6974 21.4317 11.6946C21.4236 11.6919 21.4164 11.687 21.4108 11.6807C20.8732 11.0608 20.3277 10.4494 19.6817 9.94213C18.4205 8.95063 16.9803 8.51404 15.3613 8.63235C15.3442 8.63339 15.3364 8.64264 15.3378 8.66009L15.3676 9.05585C15.3682 9.06399 15.367 9.07215 15.3641 9.07976C15.3612 9.08737 15.3566 9.09423 15.3508 9.09985C15.3449 9.10546 15.3379 9.10968 15.3302 9.11222C15.3225 9.11475 15.3144 9.11552 15.3064 9.11448L15.1032 9.08831C15.0823 9.08587 15.0717 9.09512 15.0713 9.11606C15.0645 9.35529 15.008 9.605 15.0137 9.82591C15.0542 11.3437 15.5644 12.6798 16.5444 13.8343C16.5682 13.8622 16.5629 13.8699 16.5287 13.8573C16.3753 13.8008 16.2298 13.7066 16.089 13.6563C15.7157 13.5228 15.3257 13.3469 15.0724 13.0601C13.6071 11.399 12.1167 9.75524 10.6247 8.11827C10.6129 8.10536 10.6042 8.09053 10.5986 8.07378C10.5797 8.01619 10.5321 7.99787 10.5002 7.96332C9.86009 7.26219 9.21654 6.56297 8.56951 5.86568C8.56246 5.85807 8.55707 5.84909 8.55367 5.83929C8.55028 5.82949 8.54896 5.81909 8.5498 5.80876C8.55064 5.79842 8.55361 5.78837 8.55853 5.77925C8.56346 5.77012 8.57022 5.76212 8.5784 5.75574C13.2893 2.07872 19.2059 0.535981 25.1098 1.54894C31.2714 2.60535 36.6356 6.41587 39.7253 11.8267C44.1698 19.6095 43.0992 29.5098 37.068 36.164C33.4287 40.1792 28.3121 42.7443 22.8646 43.0317C21.6909 43.094 20.3371 43.0893 19.0928 42.9354C9.61074 41.7654 2.03106 34.3668 0.823358 24.8481C-0.0346497 18.0861 2.38075 11.4435 7.36966 6.80483C7.38292 6.79226 7.38484 6.7783 7.37541 6.76295C6.0159 4.53286 4.61136 2.32529 3.30525 0.0637891C3.29945 0.0548213 3.29736 0.043962 3.29939 0.0334826C3.30142 0.0230033 3.30743 0.0137156 3.31615 0.00756238C3.32487 0.00140916 3.33564 -0.00113295 3.34619 0.000467784C3.35674 0.00206852 3.36627 0.0076881 3.37278 0.0161511C5.16208 2.13107 6.87914 4.29729 8.59411 6.4745C8.807 6.74497 9.03402 7.00969 9.27518 7.26864Z" fill="#FF0079"/>
<path d="M17.226 14.243C15.9402 13.0892 15.2126 11.4512 15.2121 9.71427C15.2121 9.57083 15.2241 9.44415 15.2482 9.33421C15.2501 9.32594 15.255 9.31866 15.262 9.31382C15.2689 9.30897 15.2775 9.30691 15.2859 9.30804C15.9357 9.38971 16.5346 9.59439 17.0825 9.9221C18.43 10.7288 18.3918 12.1778 18.8619 13.484C19.1126 14.1807 19.5445 14.7581 20.023 15.311C20.0322 15.3215 20.0383 15.3344 20.0405 15.3483C20.0426 15.3621 20.0408 15.3763 20.0352 15.3892C20.0296 15.402 20.0204 15.413 20.0088 15.4208C19.9972 15.4287 19.9836 15.4331 19.9696 15.4334C19.0121 15.4675 17.9159 14.8628 17.226 14.243Z" fill="#FF0079"/>
<path d="M25.4465 15.5618C24.5309 15.2739 23.8121 14.808 23.1672 14.0997C22.6633 13.5462 22.1898 12.9594 21.747 12.3392C21.7433 12.3341 21.741 12.3281 21.7402 12.3218C21.7395 12.3155 21.7403 12.3092 21.7427 12.3034C21.745 12.2975 21.7488 12.2925 21.7537 12.2886C21.7586 12.2847 21.7644 12.2821 21.7705 12.2811C23.7771 11.934 25.7454 12.0942 27.5844 12.9936C29.0722 13.7207 30.3229 14.9321 31.1788 16.3476C31.1805 16.3506 31.1814 16.3541 31.1811 16.3576C31.1809 16.3612 31.1797 16.3645 31.1776 16.3673C31.1754 16.3701 31.1725 16.3722 31.1692 16.3734C31.1659 16.3745 31.1623 16.3747 31.1589 16.3738C30.0349 16.0523 28.878 16.0476 27.7195 15.9785C26.9416 15.9321 26.1839 15.7932 25.4465 15.5618Z" fill="#FF0079"/>
<path d="M33.0272 23.4562C32.4823 22.9652 31.8384 22.5741 31.0358 22.1962C29.8773 21.6507 28.5084 21.144 27.1714 20.5252C25.8941 19.9342 24.534 19.0133 24.2435 17.5371C24.2431 17.5349 24.2433 17.5327 24.2441 17.5307C24.2449 17.5286 24.2462 17.5268 24.2479 17.5255C24.2497 17.5242 24.2517 17.5233 24.2539 17.523C24.2561 17.5228 24.2583 17.5231 24.2603 17.524C24.8769 17.8049 25.5208 18.0032 26.1919 18.1187C27.3855 18.3239 28.7225 18.4668 29.9904 18.8076C32.2818 19.4243 33.8915 21.122 33.8276 23.6012C33.8221 23.8096 33.8102 24.0206 33.792 24.2341C33.7916 24.2389 33.7897 24.2433 33.7867 24.247C33.7837 24.2507 33.7797 24.2534 33.7752 24.2548C33.7707 24.2562 33.7658 24.2562 33.7613 24.2548C33.7567 24.2535 33.7527 24.2509 33.7496 24.2472C33.5203 23.9766 33.2921 23.6955 33.0272 23.4562Z" fill="#FF0079"/>
<path d="M19.3331 19.3561C19.0902 20.2319 16.4743 20.8386 16.3769 19.5859C16.2382 17.8092 18.4002 17.0951 19.2446 18.6766C19.3661 18.9042 19.3956 19.1307 19.3331 19.3561ZM17.6181 19.209L18.2489 19.0635C18.2746 19.0576 18.2989 19.0466 18.3204 19.0313C18.3418 19.016 18.36 18.9966 18.374 18.9742C18.388 18.9519 18.3974 18.927 18.4017 18.901C18.406 18.875 18.4052 18.8483 18.3992 18.8227L18.373 18.7096C18.3577 18.6431 18.3293 18.5804 18.2895 18.5249C18.2497 18.4695 18.1992 18.4224 18.1409 18.3863C18.0826 18.3503 18.0177 18.3261 17.9498 18.315C17.8819 18.3039 17.8124 18.3062 17.7453 18.3217C17.6099 18.353 17.4924 18.4363 17.4186 18.5532C17.3447 18.6701 17.3207 18.8111 17.3517 18.9452L17.3778 19.0588C17.3898 19.1105 17.4218 19.1554 17.4669 19.1836C17.5119 19.2118 17.5663 19.2209 17.6181 19.209Z" fill="#FF0079"/>
<path d="M23.1426 26.1914C25.6104 25.6993 26.4841 23.642 25.6779 21.3988C25.6764 21.395 25.6763 21.3909 25.6777 21.3871C25.679 21.3833 25.6817 21.3801 25.6852 21.378C25.6888 21.376 25.693 21.3752 25.6971 21.3758C25.7012 21.3765 25.705 21.3785 25.7077 21.3816C26.2864 22.0433 26.5743 22.8008 26.5715 23.6541C26.5668 25.3052 25.3523 26.493 23.8258 26.8882C22.8395 27.1437 21.8815 27.1301 20.8905 27.1997C19.9629 27.2656 19.1305 27.4248 18.2825 27.7279C18.2759 27.7307 18.2684 27.731 18.2617 27.7285C18.2549 27.7261 18.2493 27.7212 18.2461 27.7148C18.2428 27.7084 18.2421 27.701 18.2441 27.6941C18.2461 27.6872 18.2506 27.6813 18.2568 27.6776C18.7643 27.3286 19.2937 27.0562 19.8451 26.8605C20.8602 26.5003 22.1134 26.3961 23.1426 26.1914Z" fill="#FF0079"/>
<path d="M31.2603 25.3372C33.2506 27.0605 33.0978 29.9497 31.5341 31.8876C31.4741 31.9623 31.4226 32.018 31.3797 32.0546C31.3563 32.0749 31.3453 32.0695 31.3467 32.0384C31.4472 29.8533 30.028 28.0975 28.8883 26.3878C28.3204 25.535 27.6011 24.2577 27.7408 23.195C27.744 23.1741 27.7548 23.1688 27.7733 23.1793C28.9564 23.8504 30.2248 24.4404 31.2603 25.3372Z" fill="#FF0079"/>
<path d="M17.9908 31.6068L17.9997 31.6225C18.0004 31.6236 18.0006 31.6246 18.0002 31.6257C17.806 32.1403 17.8615 32.6512 18.0976 33.1428C18.1423 33.236 18.1306 33.2436 18.0625 33.1658C17.0888 32.0518 16.1889 31.3064 14.6781 31.0692C14.6726 31.0683 14.6675 31.0659 14.6634 31.0622C14.6593 31.0584 14.6563 31.0536 14.6549 31.0482C14.6534 31.0429 14.6536 31.0372 14.6553 31.0319C14.657 31.0266 14.6602 31.0219 14.6645 31.0184C16.4428 29.5903 19.1917 28.525 21.427 29.4788C23.2383 30.252 23.4613 31.812 23.7032 33.5291C23.7712 34.0118 23.8951 34.4826 24.0748 34.9415C24.0762 34.9441 24.0765 34.9471 24.0757 34.9499C24.0749 34.9527 24.073 34.955 24.0704 34.9564C24.0678 34.9578 24.0648 34.9581 24.062 34.9573C24.0592 34.9565 24.0569 34.9545 24.0555 34.952C23.0504 33.505 22.9373 31.6901 21.2108 30.7436C20.0785 30.1227 18.5719 30.3143 17.9897 31.588C17.9884 31.5911 17.9879 31.5944 17.988 31.5977C17.9882 31.6009 17.9892 31.6041 17.9908 31.6068Z" fill="#FF0079"/>
</svg>
